<svg width="78" height="34" viewBox="0 0 78 34" fill="none" xmlns="http://www.w3.org/2000/svg">
<path d="M74.1476 33.3568H73.0058V27.8055H74.1476V29.9931L76.2114 27.8055H77.5873L75.2277 30.3507L77.9794 33.3568H76.5208L74.127 30.7979L74.1476 33.3568ZM69.8553 33.474C69.1085 33.4987 68.3724 33.2894 67.7504 32.8753V31.6854C68.0225 31.9118 68.3319 32.0887 68.6654 32.208C69.03 32.3468 69.4168 32.419 69.8072 32.4215C70.0737 32.4323 70.3389 32.3754 70.5775 32.2561C70.6682 32.2143 70.7446 32.1473 70.7983 32.0632C70.852 31.9791 70.8803 31.8815 70.8803 31.7817C70.8858 31.6854 70.8618 31.5895 70.8112 31.5071C70.761 31.4248 70.6867 31.3599 70.5984 31.3209C70.4972 31.2636 70.3912 31.2152 70.2816 31.1764L70.0891 31.1143L69.6422 30.9769L69.2295 30.8461L68.858 30.7086C68.7334 30.6654 68.6138 30.6099 68.5001 30.5436C68.296 30.4187 68.1184 30.2551 67.9775 30.0619C67.8547 29.8208 67.7887 29.555 67.7849 29.2846C67.7765 29.0596 67.8236 28.8356 67.9216 28.633C68.02 28.4303 68.1669 28.2548 68.349 28.1222C68.8001 27.8166 69.3387 27.667 69.8829 27.6956C70.5175 27.6914 71.1429 27.8501 71.699 28.1564V29.264C71.1583 28.926 70.5342 28.7449 69.8965 28.7411C69.2707 28.7411 68.9543 28.927 68.9543 29.2916C68.9543 29.4496 69.0505 29.5735 69.2501 29.6697C69.3917 29.7433 69.5417 29.7988 69.697 29.8351L70.3026 30.0137C70.731 30.1431 71.137 30.3381 71.5061 30.5918C71.6896 30.7212 71.8372 30.8949 71.9345 31.0972C72.0322 31.2996 72.0765 31.5232 72.0636 31.7472C72.0688 31.9903 72.0147 32.2307 71.9055 32.4476C71.7964 32.665 71.6355 32.852 71.4374 32.9922C70.9755 33.3191 70.4208 33.4879 69.8553 33.474ZM62.4468 33.3568H61.3047V27.8055H62.4398L64.0494 30.11L65.659 27.8055H66.7872V33.3568H65.659V29.5529L64.3864 31.3414H63.747L62.4468 29.5529V33.3568ZM35.9215 33.3568H34.7797V27.8055H35.9215V29.8693H38.4186V27.8055H39.5538V33.3568H38.4186V30.9287H35.9079L35.9215 33.3568ZM55.5127 30.9699H57.2531C57.2444 30.7589 57.1586 30.5583 57.0124 30.4058C56.9342 30.3301 56.8414 30.2708 56.7399 30.2317C56.6381 30.1927 56.5296 30.1749 56.4207 30.1787C56.194 30.1703 55.9725 30.2492 55.8015 30.3988C55.6362 30.5454 55.5329 30.7498 55.5127 30.9699ZM56.5997 33.46C56.0248 33.4792 55.4652 33.2744 55.0382 32.8893C54.8268 32.6995 54.6608 32.4654 54.5512 32.2038C54.4417 31.9422 54.3918 31.6592 54.4054 31.3756C54.3963 31.1046 54.4424 30.8346 54.5408 30.5816C54.6388 30.3287 54.7867 30.0981 54.9761 29.9038C55.1673 29.7018 55.3993 29.5431 55.6568 29.4388C55.9142 29.3345 56.1912 29.2864 56.4689 29.2982C56.7298 29.2884 56.9894 29.3383 57.228 29.4444C57.4666 29.5504 57.6776 29.7102 57.8447 29.9104C58.1911 30.3242 58.3746 30.8503 58.3607 31.3896V31.6854H55.5197C55.5465 31.8124 55.5995 31.9324 55.6752 32.0378C55.7513 32.1431 55.8479 32.2317 55.9599 32.2976C56.2299 32.4501 56.5372 32.5237 56.8474 32.5108C57.2929 32.509 57.73 32.3876 58.113 32.1598V33.0613C57.6661 33.3564 57.1341 33.4966 56.5997 33.46ZM52.0594 33.46C51.4813 33.4897 50.9057 33.3613 50.395 33.0885V32.0981C50.6204 32.2418 50.8663 32.3507 51.1241 32.4215C51.4123 32.5056 51.7109 32.5495 52.0116 32.552C52.4724 32.552 52.6992 32.4421 52.6992 32.215C52.6992 32.1117 52.6305 32.0294 52.5 31.9743C52.4334 31.9432 52.3643 31.9177 52.2935 31.8986L51.9976 31.8298L51.8257 31.7887L51.6812 31.7405C51.3184 31.6676 50.9769 31.512 50.6839 31.2863C50.5831 31.1848 50.5053 31.0631 50.4554 30.9291C50.4055 30.7948 50.3849 30.6518 50.395 30.5091C50.3915 30.3336 50.4327 30.1602 50.5147 30.005C50.5963 29.8501 50.716 29.7182 50.8625 29.6216C51.2466 29.3872 51.6928 29.2745 52.1421 29.2982C52.6619 29.2769 53.1771 29.4036 53.6278 29.6631V30.6123C53.1945 30.3483 52.6978 30.2056 52.1902 30.1997C51.7639 30.1997 51.5574 30.3095 51.5574 30.5227C51.5448 30.5583 51.5448 30.5973 51.5574 30.6329C51.5748 30.6626 51.5982 30.6884 51.6261 30.7086L51.743 30.7843L51.915 30.8325L52.0803 30.8872L52.5066 30.9699C52.8624 31.0355 53.1959 31.1893 53.4768 31.4171C53.5919 31.5333 53.6798 31.6735 53.7349 31.8274C53.7897 31.9816 53.8099 32.1459 53.7942 32.3088C53.7785 32.4717 53.7269 32.6291 53.6435 32.7696C53.5602 32.9106 53.4468 33.0309 53.3114 33.123C52.9378 33.3592 52.5014 33.4768 52.0594 33.46ZM48.3863 31.9261V29.4015H49.5075V33.3568H48.3863V32.8823C48.2213 33.069 48.0176 33.2172 47.7895 33.317C47.5617 33.4168 47.3143 33.4656 47.0656 33.46C46.8674 33.4701 46.6696 33.437 46.4858 33.3634C46.3016 33.2898 46.1359 33.1774 45.9991 33.0337C45.7295 32.6925 45.5945 32.2638 45.621 31.8298V29.4015H46.7352V31.6167C46.7268 31.7322 46.7412 31.848 46.7778 31.9579C46.8144 32.0678 46.8723 32.1693 46.9484 32.2561C47.0206 32.3255 47.1057 32.3793 47.1992 32.4149C47.2927 32.4504 47.3921 32.4665 47.4919 32.4626C47.6705 32.4616 47.8449 32.4089 47.9942 32.3113C48.1564 32.2195 48.2918 32.0869 48.3863 31.9261ZM40.4685 31.3756C40.4622 31.1007 40.5142 30.8272 40.6209 30.5736C40.7277 30.32 40.8867 30.0915 41.0877 29.9038C41.2966 29.7011 41.5447 29.5431 41.8168 29.4388C42.0885 29.3348 42.3788 29.2871 42.6697 29.2982C42.96 29.2864 43.2491 29.3338 43.5202 29.4381C43.7909 29.5421 44.0379 29.7008 44.2451 29.9038C44.445 30.0926 44.6034 30.3207 44.7101 30.5743C44.8169 30.8279 44.8692 31.1007 44.8643 31.3756C44.871 31.654 44.8193 31.9307 44.7126 32.1878C44.6058 32.4449 44.4468 32.6768 44.2451 32.8684C43.8077 33.2504 43.2471 33.4607 42.6666 33.4607C42.0857 33.4607 41.5251 33.2504 41.0877 32.8684C40.8885 32.6754 40.7318 32.4431 40.6275 32.186C40.5236 31.9289 40.4741 31.653 40.4824 31.3756H40.4685ZM41.5761 31.3756C41.5715 31.5218 41.5966 31.6669 41.6497 31.803C41.703 31.939 41.7833 32.0629 41.8858 32.1668C42.0944 32.3737 42.3763 32.4895 42.6697 32.4895C42.9634 32.4895 43.2453 32.3737 43.4539 32.1668C43.5554 32.0622 43.635 31.9383 43.6884 31.8023C43.7414 31.6666 43.7668 31.5214 43.7637 31.3756C43.7686 31.2309 43.7435 31.0864 43.6901 30.9514C43.6371 30.8168 43.5565 30.6943 43.4539 30.5918C43.2436 30.388 42.9624 30.2743 42.6697 30.2743C42.3774 30.2743 42.0962 30.388 41.8858 30.5918C41.7833 30.6943 41.7027 30.8168 41.6497 30.9514C41.5963 31.0864 41.5712 31.2309 41.5761 31.3756ZM28.9051 30.8391V33.3568H27.7839V27.8055H28.9051V29.8693C29.0694 29.6816 29.2728 29.5319 29.5009 29.4308C29.7291 29.33 29.9764 29.2801 30.2258 29.2846C30.4243 29.2755 30.6225 29.3097 30.8067 29.3844C30.9905 29.4594 31.1562 29.5731 31.2923 29.7179C31.5633 30.0584 31.698 30.4875 31.6704 30.9218V33.3431H30.5562V31.1489C30.5649 31.0345 30.5506 30.9193 30.514 30.8105C30.4774 30.702 30.4191 30.6015 30.3427 30.5161C30.2708 30.4466 30.1857 30.3929 30.0922 30.3573C29.9987 30.3221 29.8993 30.3057 29.7995 30.3095C29.622 30.3116 29.4486 30.3615 29.2972 30.454C29.1367 30.5482 29.0021 30.6804 28.9051 30.8391ZM25.5757 33.46C25.0168 33.4715 24.4747 33.2671 24.0623 32.8893C23.8537 32.6964 23.6891 32.4606 23.5799 32.1982C23.4707 31.9359 23.4194 31.653 23.4295 31.369C23.4187 31.0878 23.4696 30.8077 23.5792 30.5489C23.6884 30.2897 23.8534 30.0577 24.0623 29.8693C24.4834 29.4925 25.0314 29.2884 25.5966 29.2982C26.0013 29.2926 26.4017 29.3823 26.7659 29.5599V30.5091C26.4523 30.3584 26.1094 30.2785 25.7616 30.275C25.44 30.2659 25.126 30.3762 24.8811 30.5848C24.766 30.6811 24.6746 30.8025 24.6139 30.9396C24.5532 31.0767 24.5246 31.226 24.5301 31.3756C24.5267 31.5281 24.557 31.6791 24.6188 31.8183C24.6809 31.9575 24.7726 32.0813 24.8877 32.1808C25.1309 32.3883 25.4421 32.4986 25.7616 32.4902C26.1377 32.4979 26.5088 32.403 26.8347 32.215V33.1712C26.4446 33.3679 26.0128 33.4673 25.5757 33.46ZM20.5679 32.1326V30.3371H19.7907V29.4015H20.5679V28.3148H21.6825V29.4015H22.8103V30.3371H21.6825V31.9055C21.6748 31.9816 21.6825 32.0587 21.7048 32.1319C21.7271 32.2052 21.7641 32.2732 21.8129 32.3318C21.8691 32.381 21.9347 32.4176 22.0058 32.4403C22.0767 32.4626 22.1517 32.4703 22.2256 32.4626C22.4269 32.4606 22.6251 32.411 22.8037 32.3182V33.2469C22.5148 33.4031 22.189 33.4768 21.8611 33.46C21.6828 33.4837 21.5011 33.4656 21.3312 33.4066C21.1609 33.3477 21.0071 33.2497 20.8815 33.1209C20.7556 32.9919 20.6621 32.8356 20.6077 32.6639C20.5532 32.4923 20.5396 32.3102 20.5679 32.1326ZM17.8783 32.1944V31.7953C17.6313 31.6404 17.3442 31.5616 17.0529 31.5685C16.854 31.5577 16.6562 31.6031 16.4818 31.699C16.4166 31.7391 16.3628 31.796 16.3266 31.8637C16.2903 31.9313 16.2728 32.0077 16.2756 32.0845C16.2718 32.1588 16.2868 32.2335 16.3192 32.3004C16.3517 32.3678 16.4005 32.426 16.4612 32.4696C16.6175 32.561 16.7961 32.6064 16.9772 32.6001C17.1488 32.6099 17.3204 32.5778 17.4771 32.5073C17.634 32.4365 17.7715 32.3294 17.8783 32.1944ZM19.2541 32.4972C19.3347 32.4979 19.4142 32.4815 19.4879 32.449V33.2675C19.3099 33.3875 19.0971 33.4457 18.8826 33.4325C18.6991 33.4523 18.5139 33.4136 18.3534 33.3222C18.1929 33.2308 18.0652 33.0916 17.9885 32.9235C17.8088 33.1038 17.5939 33.2444 17.3571 33.3369C17.1202 33.4293 16.8666 33.4712 16.6126 33.46C16.2278 33.4796 15.8504 33.3491 15.5601 33.0955C15.4265 32.9758 15.3208 32.8279 15.2507 32.6625C15.1806 32.4975 15.1478 32.3189 15.1541 32.1393C15.1443 31.9523 15.1813 31.7653 15.2619 31.5961C15.3425 31.4266 15.4639 31.28 15.6153 31.1695C15.9376 30.9448 16.3231 30.8293 16.7159 30.8391C17.1122 30.8283 17.5057 30.911 17.8646 31.0801V30.9629C17.8646 30.4679 17.5137 30.2202 16.8122 30.2202C16.3904 30.2188 15.9767 30.3333 15.6153 30.5502V29.6146C16.0726 29.391 16.5781 29.2822 17.0871 29.2982C17.5803 29.2668 18.0687 29.4133 18.4629 29.7113C18.6345 29.8463 18.7713 30.0203 18.8624 30.2188C18.9531 30.4173 18.9956 30.635 18.9859 30.853V32.1944C18.9859 32.3939 19.0752 32.4972 19.2611 32.4972H19.2541ZM9.92619 33.3913H8.92184L7.05792 27.8055H8.32357L9.46535 31.5476L10.7174 27.7919H11.5909L12.8499 31.5476L13.9917 27.8055H15.2367L13.3659 33.3913H12.3545L11.1437 29.6837L9.92619 33.3913Z" fill="#BCBDC0"/>
<path d="M61.4631 21.9857H57.1087V0.812505H61.4285L67.5714 9.60391L73.7074 0.833094H78V21.9857H73.7074V7.49894L68.8374 14.2953H66.4227L61.4631 7.49894V21.9857ZM38.5495 21.9857H34.1951V0.812505H38.5495V8.73701H48.0975V0.812505H52.4243V21.9857H48.0975V12.6993H38.5495V21.9857ZM10.9445 22.1029H7.1061L0 0.819489H4.81521L9.19014 15.107L13.9711 0.77832H17.3553L22.1709 15.107L26.5183 0.833094H31.2647L24.1311 22.1165H20.2927L15.6701 8.00094L10.9445 22.1029Z" fill="white"/>
</svg>
