<svg width="93" height="39" viewBox="0 0 93 39" fill="none" xmlns="http://www.w3.org/2000/svg">
<path d="M88.4068 38.8433H87.0455V32.2245H88.4068V34.8328L90.8675 32.2245H92.508L89.6946 35.2592L92.9755 38.8433H91.2365L88.3823 35.7924L88.4068 38.8433ZM83.2891 38.9831C82.3986 39.0126 81.521 38.763 80.7794 38.2693V36.8506C81.1038 37.1205 81.4727 37.3314 81.8704 37.4736C82.305 37.6392 82.7663 37.7253 83.2317 37.7282C83.5495 37.7411 83.8656 37.6733 84.1501 37.531C84.2583 37.4811 84.3494 37.4013 84.4134 37.301C84.4775 37.2008 84.5111 37.0843 84.5111 36.9654C84.5178 36.8506 84.4891 36.7362 84.4288 36.638C84.3689 36.5398 84.2803 36.4625 84.1751 36.4159C84.0545 36.3477 83.928 36.2899 83.7974 36.2437L83.5678 36.1697L83.035 36.0058L82.5429 35.8498L82.1 35.6859C81.9515 35.6344 81.8088 35.5682 81.6732 35.4892C81.4299 35.3403 81.2182 35.1452 81.0501 34.9148C80.9037 34.6274 80.8251 34.3104 80.8205 33.9881C80.8106 33.7198 80.8667 33.4528 80.9836 33.2111C81.1009 32.9694 81.276 32.7602 81.4931 32.6022C82.0309 32.2378 82.6731 32.0594 83.322 32.0935C84.0786 32.0885 84.8243 32.2777 85.4874 32.6429V33.9635C84.8426 33.5605 84.0985 33.3446 83.3382 33.34C82.592 33.34 82.2148 33.5617 82.2148 33.9964C82.2148 34.1848 82.3296 34.3325 82.5675 34.4473C82.7364 34.535 82.9152 34.6012 83.1003 34.6444L83.8223 34.8574C84.3331 35.0117 84.8173 35.2442 85.2573 35.5466C85.4761 35.7009 85.6521 35.908 85.7681 36.1493C85.8846 36.3905 85.9374 36.6572 85.922 36.9242C85.9283 37.2141 85.8638 37.5007 85.7336 37.7594C85.6034 38.0185 85.4117 38.2415 85.1754 38.4087C84.6247 38.7984 83.9634 38.9997 83.2891 38.9831ZM74.4558 38.8433H73.0941V32.2245H74.4475L76.3667 34.9722L78.2858 32.2245H79.631V38.8433H78.2858V34.3079L76.7685 36.4405H76.0061L74.4558 34.3079V38.8433ZM42.8296 38.8433H41.4682V32.2245H42.8296V34.6852H45.8069V32.2245H47.1603V38.8433H45.8069V35.9484H42.8134L42.8296 38.8433ZM66.1882 35.9975H68.2634C68.253 35.7458 68.1506 35.5067 67.9764 35.3249C67.8832 35.2346 67.7726 35.1639 67.6515 35.1174C67.5301 35.0708 67.4007 35.0496 67.2709 35.0541C67.0006 35.0441 66.7365 35.1381 66.5326 35.3166C66.3355 35.4913 66.2124 35.735 66.1882 35.9975ZM67.4843 38.9664C66.7989 38.9893 66.1317 38.7452 65.6226 38.286C65.3705 38.0597 65.1725 37.7806 65.0419 37.4686C64.9113 37.1567 64.8518 36.8194 64.8681 36.4812C64.8572 36.158 64.9121 35.8361 65.0294 35.5345C65.1463 35.233 65.3227 34.958 65.5485 34.7264C65.7765 34.4855 66.0531 34.2963 66.36 34.1719C66.667 34.0476 66.9973 33.9901 67.3283 34.0043C67.6395 33.9926 67.9489 34.0521 68.2334 34.1786C68.5179 34.305 68.7696 34.4955 68.9688 34.7343C69.3818 35.2276 69.6006 35.8548 69.584 36.4978V36.8506H66.1966C66.2286 37.002 66.2918 37.1451 66.3821 37.2707C66.4727 37.3963 66.588 37.5019 66.7215 37.5805C67.0434 37.7623 67.4099 37.8501 67.7796 37.8347C68.3108 37.8326 68.832 37.6878 69.2887 37.4162V38.491C68.7558 38.8429 68.1215 39.0101 67.4843 38.9664ZM62.0709 38.9664C61.3817 39.0018 60.6954 38.8487 60.0864 38.5235V37.3426C60.3551 37.514 60.6484 37.6437 60.9557 37.7282C61.2993 37.8284 61.6553 37.8808 62.0139 37.8838C62.5633 37.8838 62.8337 37.7527 62.8337 37.482C62.8337 37.3588 62.7518 37.2607 62.5962 37.195C62.5168 37.1579 62.4344 37.1276 62.35 37.1047L61.9973 37.0228L61.7922 36.9737L61.62 36.9163C61.1874 36.8293 60.7802 36.6438 60.4308 36.3747C60.3106 36.2537 60.2179 36.1085 60.1584 35.9488C60.0989 35.7887 60.0744 35.6181 60.0864 35.448C60.0823 35.2388 60.1314 35.0321 60.2291 34.847C60.3264 34.6623 60.4691 34.5051 60.6438 34.3899C61.1017 34.1104 61.6337 33.976 62.1695 34.0043C62.7892 33.9789 63.4035 34.1299 63.9409 34.4394V35.5711C63.4243 35.2563 62.832 35.0862 62.2269 35.0791C61.7186 35.0791 61.4723 35.2101 61.4723 35.4642C61.4574 35.5067 61.4574 35.5533 61.4723 35.5957C61.4931 35.631 61.521 35.6618 61.5543 35.6859L61.6936 35.7762L61.8987 35.8336L62.0958 35.8989L62.6041 35.9975C63.0284 36.0757 63.426 36.2591 63.7608 36.5307C63.8981 36.6692 64.0029 36.8364 64.0686 37.0198C64.1339 37.2037 64.1581 37.3996 64.1394 37.5938C64.1206 37.7881 64.0591 37.9757 63.9597 38.1433C63.8603 38.3113 63.7251 38.4548 63.5637 38.5646C63.1182 38.8462 62.5979 38.9864 62.0709 38.9664ZM57.6915 37.1376V34.1274H59.0283V38.8433H57.6915V38.2776C57.4947 38.5002 57.2518 38.6769 56.9798 38.7959C56.7082 38.9149 56.4133 38.9731 56.1167 38.9664C55.8805 38.9785 55.6446 38.939 55.4254 38.8512C55.2058 38.7635 55.0083 38.6295 54.8452 38.4582C54.5237 38.0514 54.3627 37.5402 54.3943 37.0228V34.1274H55.7228V36.7686C55.7128 36.9063 55.7299 37.0444 55.7736 37.1754C55.8172 37.3064 55.8863 37.4275 55.977 37.531C56.0631 37.6138 56.1646 37.6779 56.276 37.7203C56.3875 37.7627 56.506 37.7818 56.625 37.7773C56.838 37.776 57.0459 37.7132 57.2239 37.5968C57.4174 37.4874 57.5788 37.3293 57.6915 37.1376ZM48.2509 36.4812C48.2434 36.1535 48.3054 35.8273 48.4327 35.525C48.56 35.2226 48.7496 34.9501 48.9892 34.7264C49.2384 34.4847 49.5341 34.2963 49.8585 34.1719C50.1825 34.048 50.5286 33.991 50.8755 34.0043C51.2215 33.9901 51.5664 34.0467 51.8895 34.1711C52.2123 34.295 52.5068 34.4843 52.7539 34.7264C52.9922 34.9514 53.181 35.2234 53.3083 35.5258C53.4356 35.8282 53.498 36.1535 53.4922 36.4812C53.5001 36.8131 53.4385 37.143 53.3112 37.4495C53.184 37.7561 52.9943 38.0327 52.7539 38.261C52.2323 38.7165 51.5639 38.9673 50.8718 38.9673C50.1792 38.9673 49.5108 38.7165 48.9892 38.261C48.7517 38.031 48.5649 37.754 48.4406 37.4474C48.3166 37.1409 48.2576 36.8119 48.2676 36.4812H48.2509ZM49.5715 36.4812C49.5661 36.6555 49.5961 36.8285 49.6593 36.9907C49.7229 37.153 49.8186 37.3006 49.9409 37.4246C50.1896 37.6712 50.5257 37.8093 50.8755 37.8093C51.2257 37.8093 51.5618 37.6712 51.8105 37.4246C51.9315 37.2998 52.0264 37.1521 52.09 36.9899C52.1533 36.8281 52.1836 36.6551 52.1799 36.4812C52.1857 36.3086 52.1557 36.1364 52.0921 35.9754C52.0289 35.8149 51.9328 35.6689 51.8105 35.5466C51.5597 35.3037 51.2245 35.1681 50.8755 35.1681C50.5269 35.1681 50.1917 35.3037 49.9409 35.5466C49.8186 35.6689 49.7225 35.8149 49.6593 35.9754C49.5956 36.1364 49.5657 36.3086 49.5715 36.4812ZM34.4638 35.8415V38.8433H33.127V32.2245H34.4638V34.6852C34.6597 34.4614 34.9022 34.283 35.1743 34.1623C35.4463 34.0421 35.7412 33.9827 36.0386 33.9881C36.2752 33.9773 36.5115 34.018 36.7311 34.107C36.9503 34.1965 37.1479 34.3321 37.3101 34.5047C37.6333 34.9106 37.7938 35.4222 37.761 35.9401V38.8271H36.4325V36.2109C36.4429 36.0744 36.4258 35.9372 36.3821 35.8074C36.3385 35.678 36.269 35.5582 36.1779 35.4563C36.0922 35.3736 35.9907 35.3095 35.8793 35.2671C35.7678 35.2251 35.6492 35.2055 35.5303 35.2101C35.3186 35.2126 35.1118 35.2721 34.9313 35.3823C34.74 35.4946 34.5795 35.6522 34.4638 35.8415ZM30.4941 38.9664C29.8278 38.9802 29.1814 38.7364 28.6898 38.286C28.441 38.0559 28.2447 37.7748 28.1145 37.462C27.9843 37.1492 27.9232 36.8119 27.9353 36.4733C27.9224 36.1381 27.9831 35.8041 28.1137 35.4954C28.2439 35.1864 28.4406 34.9098 28.6898 34.6852C29.1918 34.236 29.8453 33.9926 30.5191 34.0043C31.0016 33.9976 31.4791 34.1045 31.9133 34.3162V35.448C31.5394 35.2683 31.1305 35.1731 30.7158 35.1689C30.3323 35.1581 29.958 35.2895 29.666 35.5383C29.5287 35.6531 29.4197 35.7978 29.3474 35.9613C29.275 36.1248 29.2409 36.3028 29.2475 36.4812C29.2434 36.663 29.2796 36.8431 29.3532 37.009C29.4272 37.175 29.5366 37.3226 29.6739 37.4412C29.9638 37.6887 30.3348 37.8201 30.7158 37.8101C31.1642 37.8193 31.6068 37.7061 31.9952 37.482V38.622C31.5302 38.8566 31.0153 38.9752 30.4941 38.9664ZM24.5233 37.3838V35.243H23.5966V34.1274H24.5233V32.8318H25.8522V34.1274H27.197V35.243H25.8522V37.113C25.8431 37.2037 25.8522 37.2956 25.8789 37.383C25.9055 37.4703 25.9496 37.5514 26.0078 37.6213C26.0748 37.6799 26.153 37.7236 26.2378 37.7507C26.3222 37.7773 26.4117 37.7864 26.4999 37.7773C26.7399 37.7748 26.9761 37.7157 27.1891 37.6051V38.7123C26.8447 38.8986 26.4562 38.9864 26.0652 38.9664C25.8527 38.9947 25.636 38.9731 25.4334 38.9028C25.2304 38.8325 25.047 38.7156 24.8973 38.5621C24.7471 38.4082 24.6356 38.2219 24.5707 38.0173C24.5058 37.8126 24.4896 37.5955 24.5233 37.3838ZM21.3164 37.4574V36.9816C21.022 36.7969 20.6796 36.7029 20.3323 36.7112C20.0952 36.6983 19.8594 36.7524 19.6514 36.8668C19.5737 36.9146 19.5096 36.9824 19.4664 37.0631C19.4231 37.1438 19.4023 37.2349 19.4056 37.3264C19.4011 37.415 19.4189 37.504 19.4576 37.5839C19.4963 37.6641 19.5545 37.7336 19.6269 37.7856C19.8132 37.8946 20.0262 37.9486 20.2421 37.9412C20.4467 37.9528 20.6514 37.9145 20.8381 37.8305C21.0253 37.7461 21.1892 37.6184 21.3164 37.4574ZM22.9569 37.8184C23.053 37.8193 23.1478 37.7997 23.2356 37.761V38.7368C23.0235 38.8799 22.7697 38.9494 22.5139 38.9336C22.2951 38.9573 22.0743 38.9111 21.883 38.8021C21.6916 38.6932 21.5394 38.5272 21.4479 38.3267C21.2337 38.5418 20.9774 38.7094 20.695 38.8196C20.4126 38.9298 20.1102 38.9798 19.8074 38.9664C19.3486 38.9897 18.8986 38.8342 18.5525 38.5318C18.3932 38.3891 18.2672 38.2128 18.1836 38.0156C18.1 37.8189 18.0609 37.6059 18.0684 37.3917C18.0567 37.1688 18.1008 36.9458 18.1969 36.7441C18.293 36.5419 18.4377 36.3672 18.6183 36.2354C19.0026 35.9675 19.4622 35.8299 19.9305 35.8415C20.403 35.8286 20.8722 35.9272 21.3002 36.1289V35.9891C21.3002 35.3989 20.8818 35.1036 20.0453 35.1036C19.5425 35.102 19.0492 35.2384 18.6183 35.4971V34.3816C19.1635 34.1149 19.7662 33.9852 20.3731 34.0043C20.9612 33.9669 21.5435 34.1416 22.0135 34.4968C22.2182 34.6577 22.3812 34.8653 22.4898 35.102C22.5979 35.3386 22.6487 35.5982 22.637 35.8581V37.4574C22.637 37.6953 22.7435 37.8184 22.9652 37.8184H22.9569ZM11.8351 38.8845H10.6376L8.41528 32.2245H9.92433L11.2857 36.6863L12.7785 32.2083H13.82L15.3211 36.6863L16.6825 32.2245H18.167L15.9363 38.8845H14.7305L13.2868 34.4639L11.8351 38.8845Z" fill="#BCBDC0"/>
<path d="M73.2829 25.2857H68.0911V0.0407586H73.2417L80.566 10.5228L87.8819 0.0653077H93V25.2857H87.8819V8.01305L82.0754 16.1164H79.1963L73.2829 8.01305V25.2857ZM45.9628 25.2857H40.7711V0.0407586H45.9628V9.48921H57.347V0.0407586H62.5059V25.2857H57.347V14.2134H45.9628V25.2857ZM13.0492 25.4255H8.47266L0 0.0490855H5.74121L10.9575 17.0842L16.6579 0H20.6929L26.4345 17.0842L31.6179 0.0653077H37.2772L28.7717 25.4417H24.1951L18.6835 8.61158L13.0492 25.4255Z" fill="white"/>
</svg>
