<svg width="45" height="46" viewBox="0 0 45 46" fill="none" xmlns="http://www.w3.org/2000/svg">
<circle cx="22.5" cy="23.3918" r="22.4714" fill="#E7CA66"/>
<path d="M22.5 11.8916C17.6667 11.8916 13.75 15.8083 13.75 20.6416C13.75 22.5305 14.3611 24.6972 15.3889 26.1416L22.5 36.8916L29.6111 26.1416C30.6389 24.6972 31.25 22.5583 31.25 20.6416C31.25 15.8083 27.3333 11.8916 22.5 11.8916ZM22.5 23.9749C20.6667 23.9749 19.1667 22.4749 19.1667 20.6416C19.1667 18.8083 20.6667 17.3083 22.5 17.3083C24.3333 17.3083 25.8333 18.8083 25.8333 20.6416C25.8333 22.4749 24.3333 23.9749 22.5 23.9749Z" fill="white"/>
</svg>
