<svg width="42" height="13" viewBox="0 0 42 13" fill="none" xmlns="http://www.w3.org/2000/svg">
<path fill-rule="evenodd" clip-rule="evenodd" d="M11.3177 0.476563V0.481803C11.3125 0.481803 9.67713 0.476563 9.24104 2.05386C8.84129 3.50014 7.71471 7.49316 7.68356 7.6032H7.37206C7.37206 7.6032 6.21953 3.5211 5.81459 2.04862C5.37849 0.471323 3.73795 0.476563 3.73795 0.476563H0V12.4766H3.73795V5.34993H3.8937H4.04944L6.22991 12.4766H8.82571L11.0062 5.35517H11.3177V12.4766H15.0556V0.476563H11.3177Z" fill="#4DB45E"/>
<path fill-rule="evenodd" clip-rule="evenodd" d="M24.9716 0.476562C24.9716 0.476562 23.8762 0.576126 23.3622 1.7342L20.7145 7.6032H20.403V0.476562H16.665V12.4766H20.1953C20.1953 12.4766 21.3427 12.3718 21.8566 11.2189L24.4524 5.34993H24.7639V12.4766H28.5019V0.476562H24.9716Z" fill="#4DB45E"/>
<path fill-rule="evenodd" clip-rule="evenodd" d="M30.1632 5.92639V12.4766H33.9012V8.65128H37.9506C39.7157 8.65128 41.2109 7.51416 41.7664 5.92639H30.1632Z" fill="#4DB45E"/>
<path fill-rule="evenodd" clip-rule="evenodd" d="M37.9505 0.476562H29.6388C30.0541 2.76128 31.7518 4.59534 33.9478 5.19272C34.4462 5.32896 34.9706 5.40233 35.5105 5.40233H41.9169C41.974 5.12984 42 4.85211 42 4.5639C42 2.30538 40.1881 0.476562 37.9505 0.476562Z" fill="url(#paint0_linear)"/>
<defs>
<linearGradient id="paint0_linear" x1="29.6398" y1="2.93944" x2="42" y2="2.93944" gradientUnits="userSpaceOnUse">
<stop offset="0.3" stop-color="#00B4E6"/>
<stop offset="1" stop-color="#088CCB"/>
</linearGradient>
</defs>
</svg>
