<svg xmlns="http://www.w3.org/2000/svg" xmlns:xlink="http://www.w3.org/1999/xlink" xmlns:bx="https://boxy-svg.com">
    <symbol id="icon-advantage-1" viewBox="0 0 47 36">
        <path d="M46.0854 0H0.808517C0.362215 0 0 0.362215 0 0.808516V22.2552V25.4893V28.7234V31.9574V35.1915C0 35.6378 0.362215 36 0.808517 36H20.2129H26.681H46.0854C46.5317 36 46.894 35.6378 46.894 35.1915V31.9574V28.7234V25.4893V22.2552V0.808516C46.894 0.360598 46.5317 0 46.0854 0ZM45.2769 23.0621V24.6792H27.4896V23.0621H45.2769ZM45.2769 27.9132H27.4896V26.2962H45.2769V27.9132ZM27.4896 29.5303H45.2769V31.1473H27.4896V29.5303ZM1.61703 1.61703H45.2769V21.4467H26.681H20.2129H1.61703V1.61703ZM19.4044 27.9132H1.61703V26.2962H19.4044V27.9132ZM1.61703 29.5303H19.4044V31.1473H1.61703V29.5303ZM19.4044 24.6792H1.61703V23.0621H19.4044V24.6792ZM1.61703 32.7643H19.4044V34.3814H1.61703V32.7643ZM21.0214 31.9558V28.7217V25.4877V23.0621H25.8725V25.4877V28.7217V31.9558V34.3814H21.0214V31.9558ZM45.2769 34.3814H27.4896V32.7643H45.2769V34.3814Z" fill="#E7CA66"/>
    </symbol>
    <symbol id="icon-advantage-2" viewBox="0 0 44 36">
        <path d="M42.4998 0H1.3569C0.883756 0 0.499756 0.384 0.499756 0.857143V35.1429C0.499756 35.6169 0.883756 36 1.3569 36H42.4998C42.9738 36 43.3569 35.6169 43.3569 35.1429V0.857143C43.3569 0.384 42.9738 0 42.4998 0ZM41.6426 34.2857H2.21404V1.71429H41.6426V34.2857Z" fill="#E7CA66"/>
        <path d="M6.49972 30.8569H37.3569C37.8309 30.8569 38.214 30.4737 38.214 29.9997V5.99972C38.214 5.52658 37.8309 5.14258 37.3569 5.14258H6.49972C6.02658 5.14258 5.64258 5.52658 5.64258 5.99972V29.9997C5.64258 30.4737 6.02658 30.8569 6.49972 30.8569ZM7.35686 6.85686H36.4997V29.1426H7.35686V6.85686Z" fill="#E7CA66"/>
        <path d="M32.2141 10.2856H23.6427C23.1687 10.2856 22.7855 10.6696 22.7855 11.1428V17.9999C22.7855 18.4731 23.1687 18.8571 23.6427 18.8571H32.2141C32.6881 18.8571 33.0712 18.4731 33.0712 17.9999V11.1428C33.0712 10.6696 32.6881 10.2856 32.2141 10.2856ZM31.357 17.1428H24.4998V11.9999H31.357V17.1428Z" fill="#E7CA66"/>
        <path d="M11.6425 10.2856C11.1694 10.2856 10.7854 10.6696 10.7854 11.1428V24.8571C10.7854 25.3311 11.1694 25.7142 11.6425 25.7142C12.1157 25.7142 12.4997 25.3311 12.4997 24.8571V11.1428C12.4997 10.6696 12.1157 10.2856 11.6425 10.2856Z" fill="#E7CA66"/>
        <path d="M25.357 22.2856H23.6427C23.1687 22.2856 22.7855 22.6688 22.7855 23.1428C22.7855 23.6168 23.1687 23.9999 23.6427 23.9999H25.357C25.831 23.9999 26.2141 23.6168 26.2141 23.1428C26.2141 22.6688 25.831 22.2856 25.357 22.2856Z" fill="#E7CA66"/>
        <path d="M32.214 22.2856H30.4997C30.0257 22.2856 29.6426 22.6688 29.6426 23.1428C29.6426 23.6168 30.0257 23.9999 30.4997 23.9999H32.214C32.688 23.9999 33.0711 23.6168 33.0711 23.1428C33.0711 22.6688 32.688 22.2856 32.214 22.2856Z" fill="#E7CA66"/>
    </symbol>
    <symbol id="icon-advantage-3" viewBox="0 0 43 44">
        <path d="M10.9433 12.8293H20.0628C20.61 12.8293 20.9748 12.4645 20.9748 11.9173C20.9748 11.3702 20.61 11.0054 20.0628 11.0054H10.9433C9.75782 11.0054 9.75782 12.8293 10.9433 12.8293Z" fill="#E7CA66"/>
        <path d="M16.4151 18.3003C16.9622 18.3003 17.327 17.9355 17.327 17.3884C17.327 16.8412 16.9622 16.4764 16.4151 16.4764C12.3113 16.75 10.0314 15.838 10.0314 17.3884C10.0314 18.9387 12.2201 18.0267 16.4151 18.3003Z" fill="#E7CA66"/>
        <path d="M42.0408 39.1843L36.9339 34.0774C36.022 33.1654 35.11 34.5333 34.9276 34.7157L33.5597 33.3478C35.11 31.5239 35.9308 29.3352 35.9308 26.9642C35.9308 22.222 32.6478 18.3006 28.2704 17.2063V5.53336C28.2704 4.9862 27.9056 4.62142 27.3584 4.62142H23.7107V0.973621C23.7107 -0.759082 21.978 0.426452 0.911948 0.0616721C0.364779 0.0616721 0 0.426452 0 0.973621V30.156C0 30.7031 0.364779 31.0679 0.911948 31.0679H4.55974V34.7157C4.55974 36.4484 6.65722 35.2629 20.9748 35.6277C24.7138 37.7252 29.1823 37.2692 32.283 34.6245L33.6509 35.9925C33.5597 36.1748 32.1006 37.0868 33.0125 37.9075C37.937 42.4673 38.2106 43.8352 40.1257 43.8352C40.8553 43.8352 41.5848 43.5616 42.0408 43.0145C43.1352 42.0113 43.1352 40.2786 42.0408 39.1843ZM1.8239 29.244V1.88557H21.8868V4.62142H5.47169C4.92452 4.62142 4.55974 4.9862 4.55974 5.53336V29.244H1.8239ZM6.38364 33.8038C6.38364 26.873 6.38364 13.3761 6.38364 6.44531H26.4465V16.9327C22.7987 16.7503 19.1509 18.5742 17.2358 21.9484C12.3113 22.222 10.0314 21.3101 10.0314 22.8604C10.0314 24.4107 12.2201 23.4988 16.4151 23.7723C16.0503 24.9579 15.8679 26.1434 15.9591 27.4201C12.3113 27.6937 10.0314 26.7818 10.0314 28.3321C10.0314 29.8824 12.4025 28.9704 16.1415 29.244C16.5975 30.9767 17.5094 32.6182 18.6037 33.8038H6.38364ZM18.6037 23.3164C22.4339 15.4736 34.1069 18.3918 34.1981 26.9642C34.1981 29.1528 33.3773 31.2503 31.827 32.8006C25.1698 39.3667 14.5 31.5239 18.6037 23.3164ZM40.7641 41.7377C40.3993 42.1025 39.8521 42.1025 39.4874 41.7377L34.9276 37.2692L36.2043 35.9925C39.5786 39.7314 41.8584 40.6434 40.7641 41.7377Z" fill="#E7CA66"/>
        <path d="M10.9433 12.8293H20.0628C20.61 12.8293 20.9748 12.4645 20.9748 11.9173C20.9748 11.3702 20.61 11.0054 20.0628 11.0054H10.9433C9.75782 11.0054 9.75782 12.8293 10.9433 12.8293Z" fill="#E7CA66"/>
        <path d="M16.4151 18.3008C16.9622 18.3008 17.327 17.936 17.327 17.3888C17.327 16.8417 16.9622 16.4769 16.4151 16.4769C12.3113 16.7505 10.0314 15.8385 10.0314 17.3888C10.0314 18.9392 12.2201 18.0272 16.4151 18.3008Z" fill="#E7CA66"/>
    </symbol>
    <symbol id="icon-advantage-4" viewBox="0 0 44 37">
        <path d="M42.2386 9.08062H36.1228C40.187 4.41251 33.4797 -1.98811 28.7213 2.18769L21.5682 8.4678L14.4153 2.18868C9.66319 -1.98569 2.94442 4.40595 7.01382 9.08062H0.898455C0.402183 9.08062 -0.000244141 9.48261 -0.000244141 9.97932V35.9363C-0.000244141 36.4329 0.402183 36.835 0.898455 36.835C10.8006 36.835 34.2664 36.835 42.2386 36.835C42.7349 36.835 43.1373 36.4329 43.1373 35.9363V9.97932C43.1373 9.48261 42.7349 9.08062 42.2386 9.08062ZM16.9552 35.0376H1.79715V10.878H16.9552V35.0376ZM10.9535 9.0622C7.39658 9.0622 6.29648 4.45637 9.50762 3.00389C12.4976 1.64865 13.6733 4.27824 19.5206 9.0622C19.3025 9.0622 10.4699 9.0622 10.9535 9.0622ZM24.384 35.0376H18.7526V10.878H24.384V35.0376ZM23.616 9.0622L29.9069 3.53835C32.0438 1.66519 35.537 3.08082 35.537 5.87712C35.537 7.63327 34.0327 9.0622 32.1835 9.0622C31.997 9.0622 23.1769 9.0622 23.616 9.0622ZM41.3399 35.0376H26.1814V10.878H41.3399V35.0376Z" fill="#E7CA66"/>
    </symbol>
    <symbol id="icon-advantage-5" viewBox="0 0 52 37">
        <path d="M41.2471 18.9165C41.2901 18.3519 40.9983 17.749 40.3236 17.0026C37.9839 14.4715 31.5484 10.8877 24.5627 10.8877C17.577 10.8877 11.1654 14.4715 8.80178 17.0169C8.12713 17.749 7.84483 18.3519 7.87832 18.9308C8.06493 21.1318 15.6439 26.7826 24.5627 26.7826C33.4814 26.7826 41.0605 21.1318 41.2471 18.9165ZM24.5627 24.8687C16.5961 24.8687 10.5195 20.0074 9.82571 18.7873C10.5339 17.3997 16.931 12.8016 24.5627 12.8016C32.1943 12.8016 38.5915 17.3997 39.2997 18.7873C38.6059 20.0074 32.5293 24.8687 24.5627 24.8687Z" fill="#E7CA66"/>
        <path d="M24.5629 13.9165C23.59 13.9165 22.6391 14.205 21.8302 14.7455C21.0213 15.2859 20.3909 16.0541 20.0186 16.9529C19.6463 17.8517 19.5489 18.8407 19.7387 19.7948C19.9285 20.7489 20.3969 21.6254 21.0848 22.3133C21.7727 23.0012 22.6491 23.4696 23.6033 23.6594C24.5574 23.8492 25.5464 23.7518 26.4452 23.3795C27.344 23.0072 28.1122 22.3768 28.6526 21.5679C29.1931 20.759 29.4816 19.808 29.4816 18.8352C29.4803 17.5311 28.9617 16.2807 28.0395 15.3586C27.1174 14.4364 25.867 13.9178 24.5629 13.9165ZM24.5629 21.84C23.9686 21.84 23.3876 21.6638 22.8935 21.3336C22.3994 21.0034 22.0142 20.5342 21.7868 19.9851C21.5594 19.436 21.4999 18.8319 21.6158 18.249C21.7317 17.6661 22.0179 17.1307 22.4381 16.7105C22.8584 16.2903 23.3938 16.0041 23.9767 15.8881C24.5595 15.7722 25.1637 15.8317 25.7128 16.0591C26.2618 16.2866 26.7311 16.6717 27.0613 17.1658C27.3915 17.66 27.5677 18.2409 27.5677 18.8352C27.5664 19.6317 27.2494 20.3953 26.6862 20.9585C26.123 21.5218 25.3594 21.8388 24.5629 21.84Z" fill="#E7CA66"/>
        <path d="M50.2759 0.834961H44.3141C44.0603 0.834961 43.8169 0.935782 43.6375 1.11524C43.458 1.29471 43.3572 1.53811 43.3572 1.79191C43.3572 2.04571 43.458 2.28911 43.6375 2.46857C43.8169 2.64803 44.0603 2.74885 44.3141 2.74885H49.319V7.75368C49.319 8.00748 49.4198 8.25088 49.5992 8.43035C49.7787 8.60981 50.0221 8.71063 50.2759 8.71063C50.5297 8.71063 50.7731 8.60981 50.9526 8.43035C51.132 8.25088 51.2328 8.00748 51.2328 7.75368V1.79191C51.2328 1.53811 51.132 1.29471 50.9526 1.11524C50.7731 0.935782 50.5297 0.834961 50.2759 0.834961Z" fill="#E7CA66"/>
        <path d="M0.956946 8.71063C1.08261 8.71063 1.20705 8.68588 1.32315 8.63779C1.43926 8.5897 1.54475 8.51921 1.63361 8.43035C1.72247 8.34149 1.79296 8.23599 1.84105 8.11989C1.88914 8.00379 1.91389 7.87935 1.91389 7.75368V2.74885H6.91872C7.17252 2.74885 7.41592 2.64803 7.59539 2.46857C7.77485 2.28911 7.87567 2.04571 7.87567 1.79191C7.87567 1.53811 7.77485 1.29471 7.59539 1.11524C7.41592 0.935782 7.17252 0.834961 6.91872 0.834961H0.956946C0.703148 0.834961 0.459745 0.935782 0.280283 1.11524C0.100821 1.29471 0 1.53811 0 1.79191V7.75368C0 8.00748 0.100821 8.25088 0.280283 8.43035C0.459745 8.60981 0.703148 8.71063 0.956946 8.71063Z" fill="#E7CA66"/>
        <path d="M6.91872 34.9212H1.91389V29.9164C1.91389 29.6626 1.81307 29.4192 1.63361 29.2398C1.45415 29.0603 1.21074 28.9595 0.956946 28.9595C0.703148 28.9595 0.459745 29.0603 0.280283 29.2398C0.100821 29.4192 0 29.6626 0 29.9164V35.8782C0 36.132 0.100821 36.3754 0.280283 36.5549C0.459745 36.7343 0.703148 36.8351 0.956946 36.8351H6.91872C7.17252 36.8351 7.41592 36.7343 7.59539 36.5549C7.77485 36.3754 7.87567 36.132 7.87567 35.8782C7.87567 35.6244 7.77485 35.381 7.59539 35.2015C7.41592 35.0221 7.17252 34.9212 6.91872 34.9212Z" fill="#E7CA66"/>
        <path d="M50.2759 28.9595C50.0221 28.9595 49.7787 29.0603 49.5992 29.2398C49.4198 29.4192 49.319 29.6626 49.319 29.9164V34.9212H44.3141C44.0603 34.9212 43.8169 35.0221 43.6375 35.2015C43.458 35.381 43.3572 35.6244 43.3572 35.8782C43.3572 36.132 43.458 36.3754 43.6375 36.5549C43.8169 36.7343 44.0603 36.8351 44.3141 36.8351H50.2759C50.5297 36.8351 50.7731 36.7343 50.9526 36.5549C51.132 36.3754 51.2328 36.132 51.2328 35.8782V29.9164C51.2328 29.6626 51.132 29.4192 50.9526 29.2398C50.7731 29.0603 50.5297 28.9595 50.2759 28.9595Z" fill="#E7CA66"/>
    </symbol>
    <symbol id="icon-advantage-6" viewBox="0 0 48 37">
        <path d="M8.85207 10.2773H6.09798C5.50782 10.2773 5.11438 10.6708 5.11438 11.2609C5.11438 11.8511 5.50782 12.2445 6.09798 12.2445H8.85207C9.44223 12.2445 9.83567 11.8511 9.83567 11.2609C9.83567 10.6708 9.34387 10.2773 8.85207 10.2773Z" fill="#E7CA66"/>
        <path d="M16.1308 10.2773H13.3767C12.7865 10.2773 12.3931 10.6708 12.3931 11.2609C12.3931 11.8511 12.7865 12.2445 13.3767 12.2445H16.1308C16.7209 12.2445 17.1144 11.8511 17.1144 11.2609C17.1144 10.6708 16.7209 10.2773 16.1308 10.2773Z" fill="#E7CA66"/>
        <path d="M20.7537 12.2445H23.5078C24.098 12.2445 24.4914 11.8511 24.4914 11.2609C24.4914 10.6708 24.098 10.2773 23.5078 10.2773H20.7537C20.1636 10.2773 19.7701 10.6708 19.7701 11.2609C19.7701 11.7527 20.1636 12.2445 20.7537 12.2445Z" fill="#E7CA66"/>
        <path d="M45.1471 10.3759H30.4914V2.80216C30.4914 1.7202 29.5078 0.834961 28.4258 0.834961H2.06532C0.983357 0.933321 -0.000244141 1.7202 -0.000244141 2.80216V19.1299C-0.000244141 20.2119 0.983357 21.0971 2.06532 21.0971H5.21284V26.3102C5.21284 27.1955 5.99972 27.4906 6.78661 27.0971L15.3439 21.0971H16.721V28.6709C16.721 29.7528 17.7046 30.6381 18.7865 30.6381H31.7701L40.3274 36.6381C41.0159 37.1299 41.8028 36.6381 41.9012 35.8512V30.6381H45.0487C46.229 30.6381 47.1143 29.7528 47.1143 28.6709V12.3431C47.2126 11.2611 46.229 10.3759 45.1471 10.3759ZM15.0489 19.1299C14.8521 19.1299 14.6554 19.2283 14.4587 19.3267L7.18005 24.4414V20.1135C7.18005 19.5234 6.78661 19.1299 6.19644 19.1299H2.06532C1.96696 19.1299 1.96696 19.1299 1.96696 19.1299V2.90052C1.96696 2.90052 2.06532 2.90052 2.16368 2.90052H28.4258C28.5242 2.90052 28.5242 2.90052 28.5242 2.90052V19.1299C28.5242 19.1299 28.4258 19.1299 28.3275 19.1299H15.0489ZM45.1471 28.6709H41.0159C40.4258 28.6709 40.0323 29.0643 40.0323 29.6545V33.9823L32.7537 28.8676C32.557 28.6709 32.3602 28.6709 32.1635 28.6709H18.7865C18.6882 28.6709 18.6882 28.6709 18.6882 28.6709V21.0971H28.3275C29.5078 21.0971 30.393 20.2119 30.393 19.1299V12.3431H45.0487C45.1471 12.3431 45.1471 12.3431 45.1471 12.3431V28.5725C45.2454 28.5725 45.2454 28.6709 45.1471 28.6709Z" fill="#E7CA66"/>
    </symbol>
    <symbol id="icon-check" fill="none" viewBox="0 0 14 10">
        <path d="M0.75 3.9397L5.5 8.6897L13.25 0.939697" stroke="black"/>
    </symbol>
    <symbol id="icon-close" viewBox="0 0 18 19">
        <path fill-rule="evenodd" clip-rule="evenodd" d="M10.0966 9.95361L17.7729 2.27734C18.0757 1.97452 18.0757 1.48355 17.7729 1.18073C17.4701 0.877908 16.9791 0.877908 16.6763 1.18073L9 8.857L1.32373 1.18073C1.02091 0.877908 0.529936 0.877908 0.227116 1.18073C-0.0757052 1.48355 -0.0757052 1.97452 0.227116 2.27734L7.90339 9.95361L0.227116 17.6299C-0.0757052 17.9327 -0.0757052 18.4237 0.227116 18.7265C0.529936 19.0293 1.02091 19.0293 1.32373 18.7265L9 11.0502L16.6763 18.7265C16.9791 19.0293 17.4701 19.0293 17.7729 18.7265C18.0757 18.4237 18.0757 17.9327 17.7729 17.6299L10.0966 9.95361Z"/>
    </symbol>
    <symbol id="icon-contact-1" viewBox="0 0 24 17">
        <path d="M1.30233 0.453613C0.867091 0.453613 0.5 0.860313 0.5 1.3425V15.5647C0.5 16.0469 0.867091 16.4536 1.30233 16.4536H22.6977C23.1329 16.4536 23.5 16.0469 23.5 15.5647V1.3425C23.5 0.860313 23.1329 0.453613 22.6977 0.453613H1.30233ZM1.56977 1.6388H22.4302V2.51845L12 10.9721L1.56977 2.51845V1.6388ZM1.56977 3.99065L11.6824 12.1851C11.7744 12.2603 11.8857 12.3009 12 12.3009C12.1143 12.3009 12.2256 12.2603 12.3176 12.1851L22.4302 3.99065V15.2684H1.56977V3.99065Z" fill="#E7CA66"/>
    </symbol>
    <symbol id="icon-contact-2" viewBox="0 0 23 23">
        <path d="M16.7947 22.9207C16.1083 22.9207 15.1474 22.7835 14.0491 22.3716C12.2644 21.8225 10.8916 20.9988 9.38152 20.0378C7.73413 18.9396 6.08675 17.2922 6.08675 17.2922L5.6749 16.8803H5.53762C5.26306 16.6058 3.89024 15.0957 2.79198 13.5856C1.83101 11.9382 1.1446 10.5654 0.59547 8.7807C-0.0909403 6.85875 0.0463414 5.48593 0.183623 4.79952C0.320905 4.25039 0.732752 3.70126 1.1446 3.28942L2.79198 1.64203C3.47839 0.955625 4.85121 0.543779 6.08675 1.77932L8.83239 4.52496C9.38152 5.07408 9.93064 6.4469 8.83239 7.68244L7.185 9.32983C7.32229 9.60439 7.59685 10.1535 7.87141 10.5654C8.14598 10.9772 8.96967 12.0755 9.5188 12.6246C9.65608 12.7619 9.79336 12.8992 10.0679 13.1737L10.3425 13.311C10.8916 13.8601 11.9899 14.6838 12.4017 14.9584C12.8136 15.233 13.2254 15.5075 13.6373 15.6448L15.2846 13.9974C16.6575 12.8992 17.893 13.4483 18.5794 13.9974L21.325 16.7431C22.5606 17.9786 22.0115 19.3514 21.4623 20.0378L19.8149 21.6852C19.4031 22.0971 18.854 22.5089 18.1676 22.6462C17.7557 22.7835 17.3439 22.9207 16.7947 22.9207ZM7.04772 16.3312C7.04772 16.3312 8.69511 17.8413 10.2052 18.9396C11.7153 19.9005 12.9508 20.587 14.5982 21.1361C16.2456 21.6852 17.3439 21.5479 17.7557 21.4106C18.1676 21.2734 18.5794 20.9988 18.7167 20.7242L20.3641 19.0768C20.5014 18.9396 20.9132 18.3904 20.2268 17.704L17.4812 14.9584C17.3439 14.8211 16.7947 14.4093 16.1083 14.9584L14.3237 16.7431C14.0491 17.0176 13.6373 17.1549 13.0881 17.0176C12.8136 16.8803 11.9899 16.6058 11.4407 16.1939C10.8916 15.7821 9.93064 14.9584 9.24423 14.4093L9.10695 14.272C8.69511 13.8601 8.42054 13.5856 8.42054 13.5856C7.87142 13.0364 7.04772 11.9382 6.63588 11.3891C6.22403 10.8399 5.94947 10.0162 5.81218 9.74167C5.53762 9.32983 5.81219 8.7807 5.94947 8.50613L7.73413 6.72147C8.28326 6.03506 7.87142 5.62321 7.73413 5.48593L4.98849 2.74029C4.43937 2.19116 3.89024 2.46573 3.61567 2.60301L2.24285 4.25039C2.10557 4.38767 1.69373 4.79952 1.55644 5.21137C1.41916 5.76049 1.28188 6.85875 1.83101 8.36885C2.38014 10.0162 3.06654 11.2518 4.02752 12.7619C4.98849 14.1347 6.36131 15.6448 6.63588 15.9194L7.04772 16.3312Z" fill="#E7CA66"/>
    </symbol>
    <symbol id="icon-contact-3" viewBox="0 0 24 25">
        <path d="M20.4756 4.35303C18.2029 2.08032 15.1928 0.828613 12 0.828613C5.39209 0.828613 0 6.22144 0 12.8286C0 14.7838 0.480103 16.7139 1.39105 18.4298L0.0206909 23.9563C-0.0386353 24.1955 0.0316772 24.4483 0.205994 24.6226C0.379211 24.796 0.631714 24.8676 0.872314 24.8079L6.3988 23.4374C8.11469 24.3483 10.0448 24.8286 12 24.8286C15.1928 24.8286 18.2029 23.5769 20.4756 21.3042C22.7483 19.0313 24 16.0214 24 12.8286C24 9.63581 22.7483 6.62574 20.4756 4.35303ZM12 23.4224C10.1909 23.4224 8.40674 22.9567 6.8399 22.0762C6.6839 21.9885 6.50024 21.9636 6.32611 22.0066L1.66644 23.1622L2.82184 18.5023C2.86505 18.3286 2.84015 18.1447 2.75244 17.9885C1.8717 16.4219 1.40625 14.6377 1.40625 12.8286C1.40625 6.98719 6.15857 2.23486 12 2.23486C17.8414 2.23486 22.5938 6.98719 22.5938 12.8286C22.5938 18.6701 17.8414 23.4224 12 23.4224Z" fill="#E7CA66"/>
        <path d="M18.3453 14.9635C17.8792 14.4973 17.3662 14.0267 16.7735 13.7409C15.8878 13.314 15.0428 13.4364 14.3938 14.0853C14.0985 14.3806 13.6922 14.9629 13.4583 15.2493C12.8552 15.1484 11.6502 14.1323 11.1717 13.6555C10.6951 13.1771 9.67978 11.9719 9.57889 11.37C9.86362 11.1375 10.4479 10.7295 10.7431 10.4345C11.392 9.7856 11.5143 8.94039 11.0875 8.05489C10.8017 7.46199 10.3311 6.94911 9.86527 6.48329C8.91641 5.51448 7.45285 5.44307 6.18961 6.7065C5.24551 7.65041 4.40451 9.40035 5.75803 12.3767C6.55893 14.1375 7.84964 15.6948 8.48593 16.3375L8.49088 16.3424C9.13358 16.9789 10.6909 18.2696 12.4516 19.0703C14.4402 19.9747 16.5715 20.1893 18.122 18.6389C19.4043 17.3565 19.2963 15.8947 18.3453 14.9635ZM17.1276 17.6445C16.2119 18.5602 14.8346 18.6093 13.0337 17.7902C11.4528 17.0712 10.0213 15.8783 9.48276 15.3456C8.95011 14.8069 7.75717 13.3756 7.03812 11.7946C6.21909 9.99379 6.26816 8.61647 7.18387 7.70076C7.71835 7.16628 8.33359 6.92916 8.86057 7.4673L8.87064 7.47756C10.1189 8.72579 10.0302 9.15847 9.74863 9.44008C9.49869 9.69002 8.75986 10.1917 8.52109 10.4305C7.9606 10.9908 8.06497 11.8587 8.83109 13.0099C9.2883 13.6971 9.89218 14.364 10.1771 14.6496L10.1786 14.6513C10.4644 14.9362 11.1311 15.5401 11.8183 15.9973C12.9696 16.7634 13.8374 16.8676 14.3977 16.3073C14.6366 16.0683 15.1382 15.3297 15.3881 15.0797C15.5785 14.8893 15.7662 14.8166 16.1626 15.0078C16.6222 15.2293 17.1142 15.7213 17.3508 15.9577L17.3611 15.9678C17.9034 16.499 17.6623 17.1098 17.1276 17.6445Z" fill="#E7CA66"/>
    </symbol>
    <symbol id="icon-m-advantage-1" viewBox="0 0 45 44">
        <path d="M39.3256 7.98608H31.2468V6.34219C31.2451 4.78426 30.625 3.29071 29.5228 2.18969C28.4206 1.08866 26.9264 0.470214 25.3684 0.470215H5.87197C4.31515 0.471908 2.82257 1.0911 1.72173 2.19195C0.620889 3.29279 0.00169312 4.78536 0 6.34219V37.7489C0.00169295 39.2277 0.589888 40.6454 1.63555 41.6911C2.68121 42.7368 4.09895 43.325 5.57773 43.3267H39.3256C40.8044 43.325 42.2221 42.7368 43.2677 41.6911C44.3134 40.6454 44.9016 39.2277 44.9033 37.7489V13.583C44.905 12.8492 44.762 12.1222 44.4825 11.4436C44.203 10.765 43.7926 10.1482 43.2745 9.62842C42.7565 9.10861 42.1411 8.69601 41.4635 8.41421C40.7859 8.1324 40.0594 7.98692 39.3256 7.98608ZM2.55859 6.34219C2.55859 5.46342 2.90768 4.62065 3.52906 3.99927C4.15044 3.3779 4.99321 3.02881 5.87197 3.02881H25.3684C26.2478 3.02881 27.0912 3.37769 27.7136 3.99889C28.336 4.62008 28.6865 5.46284 28.6882 6.34219V7.98608H2.55859V6.34219ZM42.3447 37.7489C42.343 38.5491 42.0244 39.3161 41.4586 39.8819C40.8927 40.4477 40.1258 40.7664 39.3256 40.7681H5.57773C4.77753 40.7664 4.01058 40.4477 3.44474 39.8819C2.87891 39.3161 2.56028 38.5491 2.55859 37.7489V10.5447H39.3256C39.7234 10.5455 40.1172 10.6248 40.4844 10.778C40.8516 10.9313 41.1849 11.1554 41.4653 11.4376C41.7458 11.7198 41.9678 12.0546 42.1187 12.4227C42.2696 12.7909 42.3464 13.1852 42.3447 13.583V37.7489Z" fill="#E7CA66"/>
        <path d="M22.4515 33.2524H7.42615C7.08686 33.2524 6.76146 33.3872 6.52155 33.6271C6.28163 33.8671 6.14685 34.1924 6.14685 34.5317C6.14685 34.871 6.28163 35.1964 6.52155 35.4363C6.76146 35.6763 7.08686 35.811 7.42615 35.811H22.4515C22.7908 35.811 23.1162 35.6763 23.3561 35.4363C23.596 35.1964 23.7308 34.871 23.7308 34.5317C23.7308 34.1924 23.596 33.8671 23.3561 33.6271C23.1162 33.3872 22.7908 33.2524 22.4515 33.2524Z" fill="#E7CA66"/>
    </symbol>
    <symbol id="icon-m-advantage-2" viewBox="0 0 39 39">
        <path d="M37.1097 0.523254C36.789 0.565534 36.4925 0.716385 36.2696 0.950685L1.36761 35.8526C1.22284 35.9809 1.10592 36.1375 1.02406 36.3128C0.942199 36.4881 0.897145 36.6783 0.891678 36.8716C0.886212 37.065 0.920449 37.2574 0.992276 37.4371C1.0641 37.6167 1.17199 37.7796 1.30928 37.9159C1.44657 38.0522 1.61034 38.1589 1.79048 38.2294C1.97062 38.2999 2.1633 38.3327 2.35663 38.3258C2.54995 38.3189 2.7398 38.2725 2.91446 38.1893C3.08912 38.1062 3.24488 37.9881 3.37211 37.8424L38.2741 2.94045C38.4863 2.73346 38.6282 2.46503 38.6797 2.17305C38.7312 1.88106 38.6897 1.58029 38.561 1.31317C38.4324 1.04606 38.223 0.826112 37.9626 0.684377C37.7022 0.542642 37.4039 0.486282 37.1097 0.523254ZM7.55799 0.537993C3.92797 0.537993 0.95492 3.51105 0.95492 7.14106C0.95492 10.7711 3.92797 13.7441 7.55799 13.7441C11.188 13.7441 14.1611 10.7711 14.1611 7.14106C14.1611 3.51105 11.188 0.537993 7.55799 0.537993ZM7.55799 3.36788C9.65862 3.36788 11.3312 5.04043 11.3312 7.14106C11.3312 9.24169 9.65862 10.9142 7.55799 10.9142C5.45736 10.9142 3.78481 9.24169 3.78481 7.14106C3.78481 5.04043 5.45736 3.36788 7.55799 3.36788ZM32.0837 25.0637C28.4537 25.0637 25.4806 28.0367 25.4806 31.6667C25.4806 35.2968 28.4537 38.2698 32.0837 38.2698C35.7137 38.2698 38.6867 35.2968 38.6867 31.6667C38.6867 28.0367 35.7137 25.0637 32.0837 25.0637ZM32.0837 27.8936C34.1843 27.8936 35.8569 29.5661 35.8569 31.6667C35.8569 33.7674 34.1843 35.4399 32.0837 35.4399C29.983 35.4399 28.3105 33.7674 28.3105 31.6667C28.3105 29.5661 29.983 27.8936 32.0837 27.8936Z" fill="#E7CA66"/>
    </symbol>
    <symbol id="icon-m-advantage-3" viewBox="0 0 47 47">
        <path d="M23.681 0.260742C10.8191 0.260742 0.362061 10.7178 0.362061 23.5797C0.362061 36.4415 10.8191 46.8986 23.681 46.8986C36.543 46.8986 47 36.4415 47 23.5797C47 10.7178 36.543 0.260742 23.681 0.260742ZM23.681 3.08728C35.0154 3.08728 44.1734 12.2454 44.1734 23.5797C44.1734 34.9139 35.0154 44.0721 23.681 44.0721C12.3467 44.0721 3.1886 34.9139 3.1886 23.5797C3.1886 12.2454 12.3467 3.08728 23.681 3.08728ZM23.681 8.74036C22.9005 8.74036 22.2677 9.37308 22.2677 10.1536V23.5797C22.2677 24.1023 22.5526 24.5497 22.9744 24.7942C26.4267 26.7869 29.9119 28.8003 33.3752 30.8006C34.0511 31.1909 34.928 30.9687 35.3184 30.2927C35.7087 29.6168 35.4644 28.7618 34.7885 28.3715L25.0943 22.7626V10.1536C25.0943 9.37308 24.4616 8.74036 23.681 8.74036Z" fill="#E7CA66"/>
    </symbol>
    <symbol id="icon-pay-1" viewBox="0 0 40 14">
        <path d="M17.3333 13.2891H14.093L16.1197 0.704712H19.3598L17.3333 13.2891Z" fill="#00579F"/>
        <path d="M29.0796 1.01233C28.4404 0.757702 27.4267 0.476562 26.1733 0.476562C22.9734 0.476562 20.7201 2.19009 20.7063 4.63991C20.6797 6.44738 22.3196 7.45129 23.5461 8.05396C24.7997 8.6698 25.2259 9.07176 25.2259 9.62069C25.2131 10.4637 24.2129 10.8524 23.28 10.8524C21.9863 10.8524 21.2931 10.652 20.2397 10.183L19.813 9.9819L19.3596 12.8068C20.1196 13.1545 21.5197 13.463 22.9734 13.4766C26.3733 13.4766 28.5868 11.7896 28.613 9.17888C28.626 7.74631 27.76 6.64863 25.8932 5.75165C24.7598 5.17585 24.0658 4.78759 24.0658 4.19845C24.0791 3.66286 24.6528 3.11428 25.9321 3.11428C26.9855 3.08742 27.7595 3.34169 28.3458 3.59613L28.6389 3.72976L29.0796 1.01233Z" fill="#00579F"/>
        <path d="M33.3862 8.83087C33.653 8.10791 34.6798 5.30987 34.6798 5.30987C34.6664 5.33674 34.9462 4.57357 35.1062 4.10507L35.3326 5.18941C35.3326 5.18941 35.9462 8.20169 36.0795 8.83087C35.5731 8.83087 34.0262 8.83087 33.3862 8.83087ZM37.3859 0.704712H34.8795C34.1066 0.704712 33.5194 0.932114 33.1859 1.74884L28.3729 13.2889H31.7728C31.7728 13.2889 32.3326 11.7357 32.4529 11.4012C32.8259 11.4012 36.1333 11.4012 36.6132 11.4012C36.7062 11.843 36.9998 13.2889 36.9998 13.2889H40L37.3859 0.704712Z" fill="#00579F"/>
        <path d="M11.3866 0.704712L8.21326 9.28603L7.8665 7.54564C7.27982 5.53745 5.43988 3.3556 3.3866 2.27073L6.29323 13.2757H9.71973L14.8129 0.704712H11.3866Z" fill="#00579F"/>
        <path d="M5.26663 0.704712H0.0533341L0 0.958982C4.06669 2.00329 6.75999 4.52055 7.86654 7.54617L6.73323 1.76254C6.54665 0.958804 5.97326 0.731224 5.26663 0.704712Z" fill="#FAA61A"/>
    </symbol>
    <symbol id="icon-pay-2" viewBox="0 0 27 17">
        <path d="M27 8.47661C27.0013 12.8938 23.3845 16.4754 18.9217 16.4766C14.4588 16.4776 10.8404 12.8979 10.8392 8.48067C10.8392 8.47923 10.8392 8.47805 10.8392 8.47661C10.838 4.05947 14.4549 0.477736 18.9175 0.476563C23.3804 0.475389 26.9988 4.05532 27 8.47255C27 8.4739 27 8.47516 27 8.47661Z" fill="#FF9900"/>
        <path d="M8.02837 0.478678C3.59204 0.50657 0 4.079 0 8.47665C0 12.8914 3.62003 16.4745 8.08044 16.4745C10.1738 16.4745 12.082 15.6849 13.5179 14.3907C13.5178 14.3907 13.5176 14.3905 13.5173 14.3903H13.519C13.813 14.1251 14.0873 13.839 14.3393 13.5339H12.6838C12.4628 13.2696 12.2619 12.9942 12.0814 12.71H14.9366C15.1102 12.435 15.2674 12.1494 15.407 11.8536H11.61C11.4806 11.579 11.3682 11.2982 11.2723 11.0133H15.745C16.0146 10.2161 16.1609 9.36314 16.1609 8.47656C16.1609 7.88875 16.0965 7.31565 15.9747 6.76386H11.0351C11.0963 6.47989 11.1735 6.19934 11.2656 5.92367H15.74C15.64 5.63031 15.5238 5.34444 15.3916 5.06732H11.6095C11.746 4.77883 11.9006 4.4982 12.0732 4.22722H14.9263C14.7364 3.92781 14.5263 3.64176 14.2991 3.37078H12.7084C12.9543 3.08428 13.2251 2.81448 13.519 2.56291C12.083 1.2685 10.1743 0.478678 8.08044 0.478678C8.06302 0.478678 8.04578 0.478588 8.02837 0.478678Z" fill="#CC0000"/>
        <path d="M26.1893 12.6577C26.2333 12.6577 26.276 12.669 26.3178 12.6912C26.3598 12.7134 26.392 12.7455 26.4154 12.7871C26.4387 12.8282 26.4504 12.8716 26.4504 12.9166C26.4504 12.961 26.4388 13.004 26.4158 13.0451C26.393 13.0862 26.3607 13.1182 26.3191 13.1411C26.278 13.1636 26.2345 13.1749 26.1892 13.1749C26.144 13.1749 26.1006 13.1636 26.0592 13.1411C26.0177 13.1182 25.9856 13.0863 25.9622 13.0451C25.9393 13.004 25.9279 12.961 25.9279 12.9166C25.9279 12.8716 25.9394 12.8282 25.9629 12.7871C25.9864 12.7455 26.0189 12.7137 26.0605 12.6912C26.1027 12.669 26.1455 12.6577 26.1893 12.6577ZM26.1893 12.7006C26.1527 12.7006 26.117 12.71 26.0821 12.7287C26.0474 12.7473 26.0203 12.7738 26.0008 12.8088C25.981 12.8433 25.9712 12.879 25.9712 12.9166C25.9712 12.9538 25.9808 12.9897 25.9999 13.0238C26.0194 13.0579 26.0464 13.0846 26.0809 13.1037C26.1156 13.1228 26.1517 13.1321 26.1892 13.1321C26.227 13.1321 26.2631 13.1228 26.2977 13.1037C26.3321 13.0846 26.359 13.0579 26.3783 13.0238C26.3973 12.9897 26.4068 12.9539 26.4068 12.9166C26.4068 12.879 26.3972 12.8432 26.3775 12.8088C26.3581 12.7738 26.3309 12.7473 26.296 12.7287C26.2615 12.7099 26.2259 12.7006 26.1893 12.7006ZM26.0748 13.0594V12.7812H26.1716C26.2045 12.7812 26.2283 12.7837 26.2431 12.7891C26.2579 12.7943 26.2697 12.803 26.2785 12.8159C26.2872 12.8287 26.2916 12.8422 26.2916 12.8567C26.2916 12.8771 26.2843 12.8948 26.2696 12.9097C26.2552 12.9247 26.2356 12.9333 26.2113 12.9351C26.2212 12.9392 26.2292 12.9443 26.2354 12.9499C26.2468 12.9607 26.2604 12.9791 26.2769 13.005L26.3111 13.0594H26.2558L26.231 13.0156C26.2114 12.9811 26.1956 12.9597 26.1835 12.9508C26.1752 12.9446 26.1631 12.9413 26.1473 12.9413H26.1206V13.0597H26.075L26.0748 13.0594ZM26.1202 12.9028H26.1753C26.2015 12.9028 26.2193 12.8988 26.2289 12.8911C26.2386 12.8832 26.2434 12.8731 26.2434 12.8603C26.2434 12.852 26.2412 12.8446 26.2366 12.8382C26.2318 12.8317 26.2254 12.827 26.2171 12.8236C26.209 12.8205 26.1939 12.8187 26.1718 12.8187H26.1204V12.9028" fill="#FCB340"/>
        <path d="M10.7619 10.771L10.8695 10.0471C10.8107 10.0471 10.7243 10.0723 10.6478 10.0723C10.3483 10.0723 10.311 9.91388 10.3345 9.79816L10.6296 8.34217H11.0848L11.1787 7.52049H10.7496L10.837 7.02258H9.93942C9.92045 7.04136 9.43164 9.8228 9.43164 10.1617C9.43164 10.6631 9.71599 10.8862 10.1171 10.8827C10.431 10.8801 10.6756 10.7941 10.7619 10.771Z" fill="white"/>
        <path d="M11.0343 9.39101C11.0343 10.5944 11.8367 10.8803 12.5205 10.8803C13.1517 10.8803 13.4826 10.7355 13.4826 10.7355L13.6342 9.9141C13.6342 9.9141 13.1009 10.1287 12.6674 10.1287C11.7435 10.1287 11.9055 9.44688 11.9055 9.44688L13.6805 9.45221C13.6805 9.45221 13.7934 8.9006 13.7934 8.67574C13.7934 8.11456 13.4846 7.42566 12.54 7.42566C11.6749 7.42584 11.0343 8.34844 11.0343 9.39101ZM12.5432 8.18822C13.0288 8.18822 12.9392 8.72837 12.9392 8.77215H11.984C11.984 8.71618 12.0742 8.18822 12.5432 8.18822Z" fill="white"/>
        <path d="M17.9912 10.7707L18.1452 9.84244C18.1452 9.84244 17.7228 10.0519 17.4332 10.0519C16.8228 10.0519 16.578 9.59069 16.578 9.09504C16.578 8.08975 17.1031 7.53661 17.6876 7.53661C18.1261 7.53661 18.4779 7.78023 18.4779 7.78023L18.6183 6.87821C18.6183 6.87821 18.203 6.58133 17.756 6.57961C16.4113 6.57438 15.6418 7.50104 15.6418 9.10298C15.6418 10.1648 16.2116 10.8873 17.2383 10.8873C17.5286 10.8873 17.9912 10.7707 17.9912 10.7707Z" fill="white"/>
        <path d="M6.02988 7.43896C5.43993 7.43896 4.98778 7.62663 4.98778 7.62663L4.86284 8.36021C4.86284 8.36021 5.23611 8.2101 5.80043 8.2101C6.12081 8.2101 6.35518 8.24576 6.35518 8.50347C6.35518 8.65999 6.32654 8.71776 6.32654 8.71776C6.32654 8.71776 6.07375 8.6969 5.95665 8.6969C5.11673 8.6969 4.43103 9.01121 4.43103 9.95881C4.43103 10.7056 4.94383 10.8768 5.26165 10.8768C5.86874 10.8768 6.10904 10.4974 6.1229 10.4963L6.11588 10.8112C6.11588 10.8112 6.87336 10.8112 6.87345 10.8112L7.21142 8.4661C7.21142 7.47092 6.33448 7.43896 6.02988 7.43896ZM6.16102 9.3432C6.17753 9.48637 6.12363 10.1634 5.60546 10.1634C5.33825 10.1634 5.26885 9.96116 5.26885 9.84183C5.26885 9.60859 5.3968 9.32885 6.02715 9.32885C6.17397 9.32885 6.13631 9.33932 6.16102 9.3432Z" fill="white"/>
        <path d="M8.01652 10.8595C8.21031 10.8595 9.31807 10.9083 9.31807 9.77685C9.31807 8.71885 8.29266 8.928 8.29266 8.50285C8.29266 8.29144 8.45982 8.22483 8.76542 8.22483C8.88662 8.22483 9.35336 8.26301 9.35336 8.26301L9.4618 7.5111C9.4618 7.51119 9.15976 7.44421 8.66803 7.44421C8.03157 7.44421 7.38553 7.69569 7.38553 8.5561C7.38553 9.53115 8.46274 9.43321 8.46274 9.84392C8.46274 10.1181 8.1618 10.1406 7.92979 10.1406C7.52844 10.1406 7.16712 10.0042 7.16584 10.0108L7.05103 10.7551C7.07191 10.7614 7.29488 10.8595 8.01652 10.8595Z" fill="white"/>
        <path d="M25.0877 6.75684L24.9322 7.90402C24.9322 7.90402 24.6082 7.46127 24.1013 7.46127C23.1474 7.46127 22.6559 8.4021 22.6559 9.48285C22.6559 10.1806 23.0064 10.8645 23.7228 10.8645C24.2381 10.8645 24.5239 10.5088 24.5239 10.5088L24.486 10.8126H25.323L25.9803 6.76306L25.0877 6.75684ZM24.7182 8.98648C24.7182 9.43627 24.4931 10.0372 24.0268 10.0372C23.7171 10.0372 23.572 9.77983 23.572 9.37607C23.572 8.71578 23.8715 8.28025 24.2497 8.28025C24.5592 8.28025 24.7182 8.49056 24.7182 8.98648Z" fill="white"/>
        <path d="M1.37144 10.816L1.89518 7.75866L1.97215 10.816H2.56483L3.67059 7.75866L3.18077 10.816H4.06154L4.73977 6.76105L3.34064 6.75049L2.50838 9.23315L2.48558 6.76105H1.20336L0.515381 10.816H1.37144Z" fill="white"/>
        <path d="M14.627 10.8216C14.8774 9.41214 14.9666 8.29899 15.6969 8.52953C15.8018 7.98396 16.0518 7.50953 16.1659 7.27863C16.1659 7.27863 16.1298 7.22546 15.9041 7.22546C15.5188 7.22546 15.0044 7.9994 15.0044 7.9994L15.0813 7.5209H14.28L13.7434 10.8215H14.627V10.8216Z" fill="white"/>
        <path d="M19.7932 7.43896C19.2029 7.43896 18.7508 7.62663 18.7508 7.62663L18.6259 8.36021C18.6259 8.36021 18.9994 8.2101 19.5634 8.2101C19.8839 8.2101 20.1182 8.24576 20.1182 8.50347C20.1182 8.65999 20.0896 8.71776 20.0896 8.71776C20.0896 8.71776 19.8369 8.6969 19.7198 8.6969C18.8798 8.6969 18.1942 9.01121 18.1942 9.95881C18.1942 10.7056 18.7069 10.8768 19.0247 10.8768C19.6316 10.8768 19.8721 10.4974 19.8859 10.4963L19.8788 10.8112H20.6365L20.9744 8.4661C20.9745 7.47092 20.0976 7.43896 19.7932 7.43896ZM19.9241 9.3432C19.9405 9.48637 19.8866 10.1634 19.3685 10.1634C19.1012 10.1634 19.0319 9.96116 19.0319 9.84183C19.0319 9.60859 19.1597 9.32885 19.7901 9.32885C19.9371 9.32885 19.8995 9.33932 19.9241 9.3432Z" fill="white"/>
        <path d="M21.8466 10.8217C21.9841 9.78473 22.2386 8.32893 22.9164 8.52959C23.0212 7.98403 22.9201 7.98547 22.6945 7.98547C22.3089 7.98547 22.2236 7.99937 22.2236 7.99937L22.3005 7.52087H21.4994L20.9628 10.8216H21.8466V10.8217Z" fill="white"/>
        <path d="M10.9861 10.5129L11.0938 9.78911C11.035 9.78911 10.9484 9.81402 10.8721 9.81402C10.5726 9.81402 10.5396 9.65642 10.5587 9.53989L10.8006 8.06296H11.2558L11.3657 7.26231H10.9365L11.0239 6.7644H10.1635C10.1445 6.78318 9.65564 9.56471 9.65564 9.90338C9.65564 10.4048 9.94008 10.6281 10.3412 10.6245C10.6552 10.6219 10.8998 10.5359 10.9861 10.5129Z" fill="white"/>
        <path d="M11.2588 9.1328C11.2588 10.3362 12.0613 10.6222 12.745 10.6222C13.3761 10.6222 13.6538 10.4825 13.6538 10.4825L13.8054 9.66121C13.8054 9.66121 13.3253 9.87054 12.8917 9.87054C11.9679 9.87054 12.1297 9.18876 12.1297 9.18876H13.8781C13.8781 9.18876 13.991 8.63697 13.991 8.41212C13.991 7.85103 13.7089 7.16736 12.7643 7.16736C11.8992 7.16754 11.2588 8.09014 11.2588 9.1328ZM12.7675 7.93001C13.2531 7.93001 13.1635 8.47007 13.1635 8.51376H12.2083C12.2083 8.45797 12.2986 7.93001 12.7675 7.93001Z" fill="white"/>
        <path d="M18.2156 10.5125L18.3696 9.58414C18.3696 9.58414 17.9474 9.79365 17.6577 9.79365C17.0474 9.79365 16.8026 9.33239 16.8026 8.83684C16.8026 7.83155 17.3277 7.27849 17.9123 7.27849C18.3507 7.27849 18.7025 7.52212 18.7025 7.52212L18.843 6.6201C18.843 6.6201 18.3212 6.41113 17.874 6.41113C16.8808 6.41113 15.9146 7.26396 15.9146 8.86563C15.9146 9.92769 16.4363 10.6291 17.463 10.6291C17.7532 10.6292 18.2156 10.5125 18.2156 10.5125Z" fill="white"/>
        <path d="M6.25422 7.18066C5.66427 7.18066 5.21203 7.36833 5.21203 7.36833L5.08718 8.10191C5.08718 8.10191 5.46044 7.9518 6.02468 7.9518C6.34505 7.9518 6.57942 7.98746 6.57942 8.24516C6.57942 8.40168 6.55069 8.45945 6.55069 8.45945C6.55069 8.45945 6.29799 8.43851 6.18099 8.43851C5.43692 8.43851 4.65527 8.75282 4.65527 9.70042C4.65527 10.4471 5.16807 10.6184 5.48589 10.6184C6.09289 10.6184 6.35453 10.2286 6.36849 10.2274L6.34012 10.5528H7.09769L7.43566 8.20761C7.43566 7.21271 6.55881 7.18066 6.25422 7.18066ZM6.43852 9.09014C6.45494 9.23339 6.34778 9.90487 5.82979 9.90487C5.56258 9.90487 5.49309 9.70286 5.49309 9.58335C5.49309 9.35028 5.62104 9.07046 6.25148 9.07046C6.39812 9.07064 6.41381 9.08617 6.43852 9.09014Z" fill="white"/>
        <path d="M8.24092 10.6013C8.43471 10.6013 9.54256 10.65 9.54256 9.51855C9.54256 8.46073 8.51706 8.6697 8.51706 8.24473C8.51706 8.03314 8.68422 7.96653 8.98973 7.96653C9.11102 7.96653 9.57767 8.00471 9.57767 8.00471L9.68619 7.2528C9.68619 7.25289 9.38415 7.18591 8.89242 7.18591C8.25596 7.18591 7.60993 7.43739 7.60993 8.2978C7.60993 9.27276 8.68714 9.17491 8.68714 9.58562C8.68714 9.85976 8.38619 9.88205 8.15428 9.88205C7.75292 9.88205 7.39151 9.74575 7.39024 9.75225L7.27551 10.4966C7.29631 10.5029 7.51919 10.6013 8.24092 10.6013Z" fill="white"/>
        <path d="M25.3421 6.50599L25.1565 7.64577C25.1565 7.64577 24.8327 7.20302 24.3257 7.20302C23.5374 7.20302 22.8804 8.14377 22.8804 9.2247C22.8804 9.92245 23.2308 10.6061 23.9473 10.6061C24.4626 10.6061 24.7483 10.2505 24.7483 10.2505L24.7105 10.5542H25.5473L26.2046 6.50464L25.3421 6.50599ZM24.9426 8.72833C24.9426 9.17812 24.7176 9.77893 24.2511 9.77893C23.9415 9.77893 23.7964 9.52167 23.7964 9.11791C23.7964 8.45771 24.096 8.02209 24.474 8.02209C24.7837 8.022 24.9426 8.23259 24.9426 8.72833Z" fill="white"/>
        <path d="M1.59588 10.5577L2.11962 7.50039L2.1965 10.5577H2.78927L3.89503 7.50039L3.40521 10.5577H4.28598L4.9643 6.50269H3.60229L2.75407 8.99067L2.70993 6.50269H1.45443L0.766357 10.5577H1.59588Z" fill="white"/>
        <path d="M14.8514 10.5632C15.1018 9.15364 15.1482 8.00907 15.7459 8.21858C15.8505 7.67301 15.9514 7.46197 16.0656 7.23107C16.0656 7.23107 16.0121 7.21997 15.8997 7.21997C15.5144 7.21997 15.229 7.74098 15.229 7.74098L15.3057 7.26249H14.5046L13.9679 10.5632H14.8514Z" fill="white"/>
        <path d="M20.2008 7.18066C19.6108 7.18066 19.1586 7.36833 19.1586 7.36833L19.0338 8.10191C19.0338 8.10191 19.4071 7.9518 19.9713 7.9518C20.2917 7.9518 20.5259 7.98746 20.5259 8.24516C20.5259 8.40168 20.4974 8.45945 20.4974 8.45945C20.4974 8.45945 20.2446 8.43851 20.1276 8.43851C19.3836 8.43851 18.6019 8.75282 18.6019 9.70042C18.6019 10.4471 19.1146 10.6184 19.4325 10.6184C20.0395 10.6184 20.3011 10.2286 20.315 10.2274L20.2868 10.5528C20.2868 10.5528 21.0441 10.5528 21.0443 10.5528L21.3822 8.20761C21.3823 7.21271 20.5054 7.18066 20.2008 7.18066ZM20.3854 9.09014C20.4018 9.23339 20.2945 9.90487 19.7764 9.90487C19.5091 9.90487 19.4398 9.70286 19.4398 9.58335C19.4398 9.35028 19.5678 9.07046 20.1981 9.07046C20.3448 9.07064 20.3604 9.08617 20.3854 9.09014Z" fill="white"/>
        <path d="M22.0746 10.5632C22.3251 9.15364 22.3715 8.00907 22.9689 8.21858C23.0737 7.67301 23.1748 7.46197 23.2889 7.23107C23.2889 7.23107 23.2353 7.21997 23.123 7.21997C22.7377 7.21997 22.4522 7.74098 22.4522 7.74098L22.5289 7.26249H21.7279L21.1912 10.5632H22.0746Z" fill="white"/>
        <path d="M26.186 10.054C26.2296 10.054 26.2727 10.0651 26.3142 10.0876C26.356 10.1095 26.3886 10.1416 26.4119 10.1832C26.4354 10.2246 26.4469 10.2676 26.4469 10.3127C26.4469 10.3572 26.4354 10.4001 26.4123 10.4412C26.3894 10.4823 26.3572 10.5145 26.3157 10.5371C26.2743 10.5597 26.2309 10.5711 26.1859 10.5711C26.1405 10.5711 26.097 10.5597 26.0555 10.5371C26.0141 10.5143 25.982 10.4823 25.9591 10.4412C25.9357 10.4001 25.9243 10.3572 25.9243 10.3127C25.9243 10.2676 25.9359 10.2246 25.9593 10.1832C25.9829 10.1416 26.0155 10.1096 26.0572 10.0876C26.0992 10.0651 26.1423 10.054 26.186 10.054ZM26.186 10.0966C26.1494 10.0966 26.1136 10.1059 26.0787 10.1248C26.0439 10.1432 26.0168 10.1699 25.9972 10.2047C25.9777 10.2391 25.9678 10.2751 25.9678 10.3125C25.9678 10.3498 25.9773 10.3856 25.9964 10.4197C26.0158 10.4537 26.0428 10.4805 26.0776 10.4997C26.1121 10.5185 26.1481 10.5279 26.186 10.5279C26.2235 10.5279 26.2598 10.5185 26.2943 10.4997C26.3288 10.4805 26.3558 10.4537 26.3749 10.4197C26.3942 10.3853 26.4036 10.3498 26.4036 10.3125C26.4036 10.2751 26.3938 10.2391 26.3743 10.2047C26.3549 10.1699 26.3278 10.1432 26.2927 10.1248C26.2581 10.106 26.2226 10.0966 26.186 10.0966ZM26.0715 10.4555V10.1772H26.1683C26.2012 10.1772 26.2253 10.1798 26.2399 10.1851C26.2546 10.1901 26.2662 10.199 26.2752 10.2119C26.2841 10.2247 26.2886 10.2382 26.2886 10.2526C26.2886 10.2729 26.2811 10.2907 26.2663 10.3057C26.2519 10.3207 26.2325 10.3294 26.2082 10.331C26.2179 10.3351 26.2259 10.3401 26.2321 10.3457C26.2433 10.3567 26.2572 10.3751 26.2736 10.4008L26.308 10.4554H26.2524L26.2277 10.4116C26.208 10.377 26.1923 10.3555 26.1802 10.3468C26.1719 10.3404 26.1598 10.3372 26.1438 10.3372H26.1173V10.4555L26.0715 10.4555ZM26.1169 10.2988H26.172C26.1984 10.2988 26.2161 10.295 26.2256 10.2872C26.2352 10.2796 26.2402 10.2692 26.2402 10.2563C26.2402 10.2481 26.2379 10.2407 26.2334 10.2345C26.2287 10.2278 26.2223 10.223 26.214 10.2197C26.2057 10.2165 26.1908 10.2149 26.1685 10.2149H26.117V10.2988" fill="white"/>
    </symbol>
    <symbol id="icon-pay-3" viewBox="0 0 42 13">
        <path fill-rule="evenodd" clip-rule="evenodd" d="M11.3177 0.476563V0.481803C11.3125 0.481803 9.67713 0.476563 9.24104 2.05386C8.84129 3.50014 7.71471 7.49316 7.68356 7.6032H7.37206C7.37206 7.6032 6.21953 3.5211 5.81459 2.04862C5.37849 0.471323 3.73795 0.476563 3.73795 0.476563H0V12.4766H3.73795V5.34993H3.8937H4.04944L6.22991 12.4766H8.82571L11.0062 5.35517H11.3177V12.4766H15.0556V0.476563H11.3177Z" fill="#4DB45E"/>
        <path fill-rule="evenodd" clip-rule="evenodd" d="M24.9716 0.476562C24.9716 0.476562 23.8762 0.576126 23.3622 1.7342L20.7145 7.6032H20.403V0.476562H16.665V12.4766H20.1953C20.1953 12.4766 21.3427 12.3718 21.8566 11.2189L24.4524 5.34993H24.7639V12.4766H28.5019V0.476562H24.9716Z" fill="#4DB45E"/>
        <path fill-rule="evenodd" clip-rule="evenodd" d="M30.1632 5.92639V12.4766H33.9012V8.65128H37.9506C39.7157 8.65128 41.2109 7.51416 41.7664 5.92639H30.1632Z" fill="#4DB45E"/>
        <path fill-rule="evenodd" clip-rule="evenodd" d="M37.9505 0.476562H29.6388C30.0541 2.76128 31.7518 4.59534 33.9478 5.19272C34.4462 5.32896 34.9706 5.40233 35.5105 5.40233H41.9169C41.974 5.12984 42 4.85211 42 4.5639C42 2.30538 40.1881 0.476562 37.9505 0.476562Z" fill="url(#paint0_linear)"/>
        <defs>
            <linearGradient id="paint0_linear" x1="29.6398" y1="2.93944" x2="42" y2="2.93944" gradientUnits="userSpaceOnUse">
                <stop offset="0.3" stop-color="#00B4E6"/>
                <stop offset="1" stop-color="#088CCB"/>
            </linearGradient>
        </defs>
    </symbol>
    <symbol id="icon-review-arrow" fill="none" viewBox="0 0 12 8">
        <path d="M1 1.33496L6 6.33496L11 1.33496" stroke="#333333"/>
    </symbol>
    <symbol id="icon-select-arrow" fill="none" viewBox="0 0 17 11">
        <path d="M1 1.45361L8.5 8.95361L16 1.45361" stroke="#333333" stroke-width="2"/>
    </symbol>
    <symbol id="icon-slider-next" fill="none" viewBox="0 0 16 27">
        <path opacity="0.54" d="M1.5 1.07251L14 13.5725L1.5 26.0725" stroke-width="1.5"/>
    </symbol>
    <symbol id="icon-slider-prev" fill="none" viewBox="0 0 16 27">
        <path opacity="0.54" d="M14.5 1.07251L2 13.5725L14.5 26.0725" stroke-width="1.5"/>
    </symbol>
    <symbol id="icon-social-1" viewBox="0 0 24 21">
        <path d="M23.635 0.716495C23.3462 0.363365 22.9138 0.168945 22.4171 0.168945C22.1471 0.168945 21.861 0.225756 21.5671 0.338116L1.55697 7.97658C0.495059 8.38183 0.35204 8.98998 0.361238 9.31642C0.370436 9.64286 0.547722 10.242 1.63092 10.5866C1.63741 10.5886 1.6439 10.5906 1.6504 10.5924L5.80103 11.7802L8.04569 18.199C8.35175 19.074 9.03871 19.6176 9.83876 19.6176C10.3432 19.6176 10.8394 19.4062 11.2736 19.0066L13.841 16.6427L17.5647 19.6411C17.5651 19.6414 17.5656 19.6416 17.566 19.642L17.6013 19.6705C17.6045 19.673 17.608 19.6757 17.6112 19.6782C18.0251 19.9992 18.4769 20.1688 18.9182 20.1689H18.9184C19.7807 20.1689 20.4673 19.5307 20.6673 18.5431L23.9459 2.35391C24.0776 1.70411 23.9672 1.12265 23.635 0.716495ZM7.18956 11.5546L15.1974 7.46366L10.2112 12.7619C10.1295 12.8486 10.0716 12.9548 10.0431 13.0705L9.08164 16.965L7.18956 11.5546ZM10.3353 17.9876C10.3021 18.0181 10.2687 18.0453 10.2354 18.0704L11.1274 14.4575L12.75 15.7642L10.3353 17.9876ZM22.5884 2.07888L19.3098 18.2682C19.2782 18.4231 19.1774 18.7837 18.9182 18.7837C18.7902 18.7837 18.6293 18.7139 18.4646 18.5871L14.2451 15.1896C14.2446 15.1891 14.2439 15.1885 14.2431 15.1882L11.7325 13.1664L18.9431 5.50449C19.174 5.25921 19.1949 4.88354 18.9927 4.61409C18.7904 4.34464 18.4237 4.25988 18.1238 4.41318L6.26417 10.4719L2.05709 9.26827L22.0611 1.63214C22.23 1.56758 22.348 1.55405 22.4171 1.55405C22.4595 1.55405 22.5348 1.5591 22.5628 1.59355C22.5996 1.63846 22.6465 1.79158 22.5884 2.07888Z"/>
    </symbol>
    <symbol id="icon-social-2" viewBox="0 0 24 25">
        <path d="M20.4756 4.42285C18.2029 2.15015 15.1928 0.898438 12 0.898438C5.39209 0.898438 0 6.29126 0 12.8984C0 14.8536 0.480103 16.7838 1.39105 18.4996L0.0206909 24.0261C-0.0386353 24.2653 0.0316772 24.5181 0.205994 24.6925C0.379211 24.8659 0.631714 24.9375 0.872314 24.8778L6.3988 23.5072C8.11469 24.4182 10.0448 24.8985 12 24.8985C15.1928 24.8985 18.2029 23.6467 20.4756 21.374C22.7483 19.1012 24 16.0913 24 12.8984C24 9.70563 22.7483 6.69556 20.4756 4.42285ZM12 23.4922C10.1909 23.4922 8.40674 23.0266 6.8399 22.146C6.6839 22.0583 6.50024 22.0334 6.32611 22.0764L1.66644 23.232L2.82184 18.5722C2.86505 18.3984 2.84015 18.2146 2.75244 18.0584C1.8717 16.4917 1.40625 14.7075 1.40625 12.8984C1.40625 7.05701 6.15857 2.30469 12 2.30469C17.8414 2.30469 22.5938 7.05701 22.5938 12.8984C22.5938 18.7399 17.8414 23.4922 12 23.4922Z"/>
        <path d="M18.3453 15.0333C17.8793 14.5671 17.3662 14.0965 16.7735 13.8107C15.8879 13.3839 15.0428 13.5062 14.3939 14.1551C14.0985 14.4505 13.6922 15.0327 13.4584 15.3191C12.8553 15.2182 11.6502 14.2022 11.1718 13.7254C10.6952 13.2469 9.67984 12.0417 9.57895 11.4398C9.86368 11.2073 10.448 10.7993 10.7431 10.5044C11.3921 9.85543 11.5144 9.01021 11.0876 8.12471C10.8017 7.53182 10.3311 7.01894 9.86533 6.55312C8.91647 5.58431 7.45291 5.51289 6.18967 6.77632C5.24558 7.72023 4.40457 9.47017 5.75809 12.4466C6.55899 14.2073 7.8497 15.7646 8.48599 16.4073L8.49094 16.4123C9.13364 17.0487 10.691 18.3394 12.4517 19.1402C14.4402 20.0445 16.5716 20.2591 18.1221 18.7088C19.4044 17.4263 19.2964 15.9646 18.3453 15.0333ZM17.1277 17.7143C16.2119 18.63 14.8346 18.6791 13.0338 17.8601C11.4529 17.141 10.0213 15.9481 9.48282 15.4154C8.95017 14.8767 7.75723 13.4454 7.03818 11.8645C6.21915 10.0636 6.26822 8.6863 7.18393 7.77059C7.71842 7.2361 8.33365 6.99898 8.86063 7.53713L8.8707 7.54738C10.1189 8.79561 10.0303 9.22829 9.74869 9.50991C9.49875 9.75985 8.75992 10.2616 8.52115 10.5003C7.96066 11.0606 8.06503 11.9285 8.83115 13.0797C9.28836 13.7669 9.89224 14.4338 10.1772 14.7194L10.1786 14.7211C10.4644 15.006 11.1311 15.6099 11.8183 16.0671C12.9697 16.8332 13.8374 16.9374 14.3977 16.3771C14.6367 16.1381 15.1382 15.3995 15.3882 15.1496C15.5786 14.9591 15.7663 14.8864 16.1627 15.0776C16.6223 15.2992 17.1143 15.7912 17.3509 16.0275L17.3611 16.0376C17.9035 16.5688 17.6623 17.1797 17.1277 17.7143Z"/>
    </symbol>
    <symbol id="icon-social-3" viewBox="0 0 25 25">
        <path d="M12.2874 24.652C19.0736 24.652 24.5749 19.1507 24.5749 12.3646C24.5749 5.57842 19.0736 0.0771484 12.2874 0.0771484C5.50127 0.0771484 0 5.57842 0 12.3646C0 19.1507 5.50127 24.652 12.2874 24.652Z" fill="#E7CA66"/>
        <path d="M5.47853 11.4926L17.3257 6.92474C17.8755 6.72609 18.3558 7.05888 18.1776 7.89033L18.1786 7.8893L16.1614 17.3926C16.0119 18.0664 15.6116 18.2302 15.0515 17.9128L11.9796 15.6488L10.4979 17.0762C10.3341 17.24 10.1959 17.3783 9.87845 17.3783L10.0966 14.2521L15.7897 9.10883C16.0375 8.89073 15.7344 8.76786 15.4078 8.98493L8.37222 13.4145L5.33927 12.4684C4.68087 12.2595 4.66654 11.81 5.47853 11.4926Z" fill="white"/>
    </symbol>
    <symbol id="icon-social-4" viewBox="0 0 26 26">
        <path d="M13.2067 0.0771484H13.2004C6.23724 0.0771484 0.574829 5.74114 0.574829 12.7059C0.574829 15.4684 1.46516 18.0289 2.97903 20.1079L1.40517 24.7995L6.25934 23.2477C8.25626 24.5706 10.6384 25.3346 13.2067 25.3346C20.1699 25.3346 25.8323 19.6691 25.8323 12.7059C25.8323 5.74272 20.1699 0.0771484 13.2067 0.0771484Z" fill="#E7CA66"/>
        <path d="M20.5551 17.9105C20.2504 18.7708 19.0412 19.4844 18.0767 19.6927C17.4168 19.8332 16.5549 19.9453 13.6535 18.7424C9.9422 17.2049 7.55221 13.4336 7.36594 13.1889C7.18755 12.9442 5.86627 11.192 5.86627 9.37979C5.86627 7.56756 6.78659 6.68513 7.15756 6.30627C7.46223 5.99528 7.9658 5.85321 8.44885 5.85321C8.60513 5.85321 8.74563 5.8611 8.87191 5.86742C9.24288 5.8832 9.42916 5.9053 9.67384 6.49096C9.97851 7.22501 10.7204 9.03723 10.8088 9.22351C10.8988 9.40978 10.9888 9.66236 10.8625 9.90704C10.7441 10.1596 10.6399 10.2717 10.4537 10.4864C10.2674 10.7011 10.0906 10.8652 9.90431 11.0957C9.73382 11.2962 9.54124 11.5109 9.75592 11.8819C9.97061 12.2449 10.7126 13.4557 11.8049 14.4281C13.2146 15.6831 14.3575 16.0841 14.7664 16.2546C15.071 16.3808 15.4341 16.3509 15.6567 16.1141C15.9393 15.8094 16.2881 15.3042 16.6433 14.807C16.8959 14.4502 17.2148 14.406 17.5494 14.5323C17.8904 14.6507 19.6947 15.5426 20.0657 15.7273C20.4367 15.9136 20.6814 16.002 20.7713 16.1583C20.8597 16.3145 20.8597 17.0486 20.5551 17.9105Z" fill="#FAFAFA"/>
    </symbol>
    <symbol id="icon-rub" viewBox="0 0 11 14">
        <path d="M6.35714 8.6822C8.64286 8.6822 10.5 6.82506 10.5 4.53934C10.5 2.25363 8.64286 0.396484 6.35714 0.396484H2.31429V7.51077H0.5V8.6822H2.32857V10.3965H0.5V11.5679H2.32857V13.9536H3.5V11.5822H7.42857V10.4108H3.5V8.69649H6.35714V8.6822ZM3.5 1.56791H6.35714C8 1.56791 9.32857 2.89649 9.32857 4.53934C9.32857 6.1822 8 7.51077 6.35714 7.51077H3.5V1.56791Z"/>
    </symbol>
    <symbol id="icon-phone" viewBox="0 0 23 22">
        <path d="M17.084 21.9613C16.3976 21.9613 15.4367 21.824 14.3384 21.4121C12.5537 20.863 11.1809 20.0393 9.67082 19.0783C8.02344 17.9801 6.37605 16.3327 6.37605 16.3327L5.96421 15.9209H5.82693C5.55236 15.6463 4.17954 14.1362 3.08129 12.6261C2.12031 10.9787 1.4339 9.60589 0.884776 7.82123C0.198366 5.89928 0.335648 4.52646 0.47293 3.84005C0.610212 3.29092 1.02206 2.74179 1.4339 2.32995L3.08129 0.682562C3.7677 -0.00384802 5.14052 -0.415694 6.37605 0.819844L9.12169 3.56548C9.67082 4.11461 10.22 5.48743 9.12169 6.72297L7.47431 8.37035C7.61159 8.64492 7.88616 9.19405 8.16072 9.60589C8.43528 10.0177 9.25898 11.116 9.8081 11.6651C9.94539 11.8024 10.0827 11.9397 10.3572 12.2142L10.6318 12.3515C11.1809 12.9007 12.2792 13.7244 12.691 13.9989C13.1029 14.2735 13.5147 14.548 13.9266 14.6853L15.5739 13.0379C16.9468 11.9397 18.1823 12.4888 18.8687 13.0379L21.6144 15.7836C22.8499 17.0191 22.3008 18.3919 21.7516 19.0783L20.1043 20.7257C19.6924 21.1376 19.1433 21.5494 18.4569 21.6867C18.045 21.824 17.6332 21.9613 17.084 21.9613ZM7.33703 15.3717C7.33703 15.3717 8.98441 16.8818 10.4945 17.9801C12.0046 18.9411 13.2402 19.6275 14.8875 20.1766C16.5349 20.7257 17.6332 20.5884 18.045 20.4512C18.4569 20.3139 18.8687 20.0393 19.006 19.7648L20.6534 18.1174C20.7907 17.9801 21.2025 17.431 20.5161 16.7446L17.7705 13.9989C17.6332 13.8616 17.084 13.4498 16.3976 13.9989L14.613 15.7836C14.3384 16.0581 13.9266 16.1954 13.3774 16.0581C13.1029 15.9209 12.2792 15.6463 11.7301 15.2345C11.1809 14.8226 10.22 13.9989 9.53354 13.4498L9.39626 13.3125C8.98441 12.9007 8.70985 12.6261 8.70985 12.6261C8.16072 12.077 7.33703 10.9787 6.92518 10.4296C6.51334 9.88046 6.23877 9.05676 6.10149 8.7822C5.82693 8.37035 6.10149 7.82123 6.23877 7.54666L8.02344 5.762C8.57257 5.07559 8.16072 4.66374 8.02344 4.52646L5.2778 1.78082C4.72867 1.23169 4.17954 1.50625 3.90498 1.64354L2.53216 3.29092C2.39488 3.4282 1.98303 3.84005 1.84575 4.25189C1.70847 4.80102 1.57119 5.89928 2.12031 7.40938C2.66944 9.05676 3.35585 10.2923 4.31682 11.8024C5.2778 13.1752 6.65062 14.6853 6.92518 14.9599L7.33703 15.3717Z" fill="#E7CA66"/>
    </symbol>
    <symbol id="iconlinext" viewBox="">

    </symbol>
    <symbol id="iconlinext" viewBox="">

    </symbol>
    <symbol id="iconlinext" viewBox="">

    </symbol>
</svg>